<svg xmlns="http://www.w3.org/2000/svg" xmlns:svg="http://www.w3.org/2000/svg" xmlns:xlink="http://www.w3.org/1999/xlink" id="svg2" version="1.1" viewBox="0 0 48 48"><metadata id="metadata24"/><defs id="defs4"><linearGradient id="linearGradient4178" x1="18.6" x2="20.03" y1="261.26" y2="155.59" gradientTransform="matrix(0.43355,0,0,0.43481,-57.018323,-61.893693)" gradientUnits="userSpaceOnUse"><stop id="stop4180" stop-color="#2a2c2f" style="stop-color:#18191b;stop-opacity:1"/><stop id="stop4182" offset="1" stop-color="#424649"/></linearGradient><linearGradient id="0" x1="403.66" x2="402.65" y1="545.75" y2="517.44" gradientUnits="userSpaceOnUse" xlink:href="#0-7"><stop id="stop7" stop-color="#d3d3d3"/><stop id="stop9" offset="1" stop-color="#fcf9f9"/></linearGradient><linearGradient id="1" x1="12.613" x2="11.598" y1="24.02" y2="-.7" gradientUnits="userSpaceOnUse"><stop id="stop12" stop-color="#00cafe"/><stop id="stop14" offset="1" stop-color="#1460f3"/></linearGradient><linearGradient id="0-7" x1="18.6" x2="20.03" y1="261.26" y2="155.59" gradientTransform="matrix(0.43355,0,0,0.43481,-57.018323,-61.893693)" gradientUnits="userSpaceOnUse"><stop id="stop11" stop-color="#2a2c2f"/><stop id="stop13" offset="1" stop-color="#424649"/></linearGradient><linearGradient id="linearGradient4247" x1="30.712" x2="29.898" y1="103.119" y2="54.915" gradientTransform="translate(-6.9152489,-55.322037)" gradientUnits="userSpaceOnUse" xlink:href="#linearGradient4178"/></defs><ellipse style="opacity:1;fill:url(#linearGradient4247);fill-opacity:1;stroke:#3daee6;stroke-width:0;stroke-linecap:round;stroke-linejoin:round;stroke-miterlimit:4;stroke-dasharray:none;stroke-opacity:1" id="path4239" cx="24" cy="24" rx="24" ry="24"/><g id="g16" transform="matrix(1.61348 0 0 1.61348-622.39-833.94)"><path id="path20" fill="url(#1)" d="m23.09 18.561c-.37.644-1.042 1-1.734 1-.339 0-.683-.086-.998-.268l-5.982-3.455v6.91c0 1.104-.896 2-2 2-1.104 0-2-.896-2-2v-6.911l-5.985 3.456c-.315.182-.659.268-.998.268-.691 0-1.364-.356-1.734-1-.552-.957-.225-2.18.732-2.73l5.983-3.456-5.985-3.456c-.957-.553-1.284-1.774-.732-2.731.552-.957 1.776-1.285 2.732-.732l5.984 3.455v-6.911c0-1.104.896-2 2-2 1.104 0 2 .896 2 2v6.91l5.982-3.455c.956-.553 2.183-.225 2.732.732.552.957.225 2.18-.732 2.731l-5.981 3.456 5.982 3.455c.957.552 1.286 1.775.734 2.732" transform="matrix(.73501 0 0 .73501 391.58 523.08)"/></g></svg>