<svg xmlns="http://www.w3.org/2000/svg" xmlns:svg="http://www.w3.org/2000/svg" xmlns:xlink="http://www.w3.org/1999/xlink" id="svg2" version="1.1" viewBox="0 0 48 48"><metadata id="metadata21"/><defs id="defs4"><linearGradient id="0" x1="396.11" x2="397.66" y1="545.48" y2="516.98" gradientUnits="userSpaceOnUse" xlink:href="#2"/><linearGradient id="1" x1="403.44" x2="402.47" y1="545.15" y2="518.08" gradientUnits="userSpaceOnUse" xlink:href="#2"/><linearGradient id="2"><stop id="stop9" stop-color="#dce2ff"/><stop id="stop11" offset="1" stop-color="#f8feff"/></linearGradient><linearGradient id="linearGradient4247" x1="30.712" x2="29.898" y1="103.119" y2="54.915" gradientTransform="translate(-6.9152499,-55.322038)" gradientUnits="userSpaceOnUse" xlink:href="#linearGradient4178"/><linearGradient id="linearGradient4178" x1="18.6" x2="20.03" y1="261.26" y2="155.59" gradientTransform="matrix(0.43355,0,0,0.43481,-57.018323,-61.893693)" gradientUnits="userSpaceOnUse"><stop id="stop4180" stop-color="#2a2c2f" style="stop-color:#18191b;stop-opacity:1"/><stop id="stop4182" offset="1" stop-color="#424649"/></linearGradient><linearGradient id="linearGradient4163-1" x1="407.759" x2="407.97" y1="543.612" y2="529.82" gradientTransform="matrix(1.9378772,0,0,1.9319044,-769.03542,-1012.1716)" gradientUnits="userSpaceOnUse" xlink:href="#2"/><linearGradient id="linearGradient4155-2" x1="407.759" x2="407.97" y1="543.612" y2="529.82" gradientTransform="matrix(1.9378772,0,0,1.9319044,-769.03542,-1012.1716)" gradientUnits="userSpaceOnUse" xlink:href="#2"/></defs><ellipse style="opacity:1;fill:url(#linearGradient4247);fill-opacity:1;stroke:#3daee6;stroke-width:0;stroke-linecap:round;stroke-linejoin:round;stroke-miterlimit:4;stroke-dasharray:none;stroke-opacity:1" id="path4239" cx="24" cy="24" rx="24" ry="24"/><path id="path17-4" d="M 23.556357,13.669657 13.394129,26.67717 c -1.904933,2.438063 -1.372017,6.782916 1.065833,8.687774 2.439787,1.904858 6.78257,1.371652 8.689441,-1.066411 L 33.311631,21.29102 34.58094,19.664356 c 1.271248,-1.626663 0.914678,-4.522588 -0.711201,-5.791849 -1.625879,-1.271193 -4.523005,-0.913791 -5.792315,0.710941 l -1.271247,1.626663 -7.621671,9.756118 -1.271247,1.626664 c -0.635624,0.813331 -0.457339,2.260328 0.354631,2.895924 0.813909,0.635597 2.261503,0.457862 2.897126,-0.35547 l 8.892919,-11.380849 1.625879,1.271193 -8.892919,11.380849 c -1.271247,1.626663 -4.166435,1.982134 -5.792314,0.710941 -1.625879,-1.271193 -1.982449,-4.167118 -0.711201,-5.79185 l 1.271247,-1.626663 8.892918,-11.380849 c 1.904934,-2.438064 6.249654,-2.971269 8.689442,-1.066412 2.439787,1.904858 2.972703,6.249711 1.06777,8.687774 L 34.93751,22.564145 24.775282,35.571658 C 22.234725,38.823053 16.44241,39.533994 13.190652,36.993539 9.9388938,34.453085 9.2276929,28.661236 11.76825,25.407909 l 10.162228,-13.007513 1.625879,1.271193 z" style="fill:url(#linearGradient4163-1);fill-opacity:1;stroke:url(#linearGradient4155-2);stroke-width:0;stroke-linecap:round;stroke-linejoin:round;stroke-miterlimit:4;stroke-dasharray:none;stroke-opacity:.8"/></svg>