<svg xmlns="http://www.w3.org/2000/svg" xmlns:svg="http://www.w3.org/2000/svg" xmlns:xlink="http://www.w3.org/1999/xlink" id="svg2" version="1.1" viewBox="0 0 48 48"><metadata id="metadata42"/><defs id="defs4"><linearGradient id="3" x2="0" y1="19.371" y2="-7.344" gradientUnits="userSpaceOnUse"><stop id="stop7" stop-color="#bfc1c1"/><stop id="stop9" offset="1" stop-color="#f1f2f3"/></linearGradient><linearGradient id="2" x1="408.52" x2="409.27" y1="506.48" y2="533.2" gradientTransform="matrix(-0.55046,0,0,-0.55168,244.17,292.89)" gradientUnits="userSpaceOnUse"><stop id="stop12" stop-color="#222c35"/><stop id="stop14" offset="1" stop-color="#545e67"/></linearGradient><linearGradient id="0" x1="398.3" x2="419.77" y1="509.53" y2="531" gradientTransform="matrix(.4325 0 0 .43346-157.44-219.19)" gradientUnits="userSpaceOnUse"><stop id="stop17" stop-color="#18222a"/><stop id="stop19" offset="1" stop-color="#566069"/></linearGradient><linearGradient id="1" x1="407.38" x2="407.51" y1="529.56" y2="509.98" gradientTransform="matrix(0.55046,0,0,0.55168,-205.63,-280.64)" gradientUnits="userSpaceOnUse"><stop id="stop22" stop-color="#08f"/><stop id="stop24" offset="1" stop-color="#02c3ff"/></linearGradient><linearGradient id="linearGradient4176" x1="20.684" x2="19.322" y1="19.996" y2="-8.082" gradientUnits="userSpaceOnUse" xlink:href="#0"/><linearGradient id="linearGradient4178" x1="398.3" x2="419.77" y1="509.53" y2="531" gradientTransform="matrix(0.4325,0,0,0.43346,-157.44,-219.19)" gradientUnits="userSpaceOnUse" xlink:href="#0"/></defs><g id="g26" transform="matrix(1.6592909,0,0,1.6592909,-66.224606,13.933095)" style="enable-background:new"><path id="path28" d="m 61.53,5.232 c -0.101,0.09 -0.25,0.095 -0.357,0.013 l -3.56,-2.709 -1.687,10.09 c -0.006,0.038 -0.02,0.073 -0.04,0.105 -0.338,1.446 -2.184,2.525 -4.355,2.525 -2.433,0 -4.413,-1.347 -4.413,-3 0,-1.656 1.979,-3 4.413,-3 0.999,0 1.949,0.223 2.721,0.633 l 2.231,-12.653 c 0.02,-0.115 0.11,-0.208 0.228,-0.229 0.113,-0.02 0.232,0.032 0.292,0.134 l 4.582,7.744 C 61.654,5.003 61.631,5.15 61.53,5.24" style="fill:#fff;fill-opacity:.84600004"/><g id="g30" transform="matrix(1.04373,0,0,1.04373,34.15,-0.21)"><rect id="rect32" width="26.716" height="26.716" x="6.02" y="-7.344" rx="13.358" style="fill:url(#3);stroke:url(#linearGradient4176)"/><path id="path34" d="m 11.565821,6.125004 a 7.706427,7.723482 0 0 1 7.706426,-7.72348 7.706427,7.723482 0 0 1 7.706425,7.72348 7.706427,7.723482 0 0 1 -7.706425,7.723485 7.706427,7.723482 0 0 1 -7.706426,-7.723485" style="fill:url(#2)"/><ellipse id="ellipse36" cx="19.272" cy="6.125" rx="6.06" ry="6.068" style="fill:url(#linearGradient4178)"/><ellipse id="ellipse38" cx="19.272" cy="6.125" rx="5.505" ry="5.517" style="fill:url(#1)"/></g></g></svg>