<svg xmlns="http://www.w3.org/2000/svg" xmlns:svg="http://www.w3.org/2000/svg" xmlns:xlink="http://www.w3.org/1999/xlink" id="svg2" version="1.1" viewBox="0 0 48 48"><metadata id="metadata24"/><defs id="defs4"><linearGradient id="0" x1="-123.97" x2="-125.19" y1="73.5" y2="-26.05" gradientTransform="matrix(.49433 0 0 .4778 125.02-12.773)" gradientUnits="userSpaceOnUse"><stop id="stop7" stop-color="#c52828"/><stop id="stop9" offset="1" stop-color="#ff5454"/></linearGradient><linearGradient id="linearGradient11" x1="61.34" x2="60.58" y1="13.641" y2="-38.997" gradientUnits="userSpaceOnUse" xlink:href="#0"/><linearGradient id="1" x1="425.71" x2="426.43" y1="517.57" y2="476.11" gradientUnits="userSpaceOnUse" xlink:href="#0"/><linearGradient id="linearGradient4160" x1="-13.22" x2="-12.61" y1="43.322" y2="-7.119" gradientTransform="translate(35.186441,6.3050857)" gradientUnits="userSpaceOnUse" xlink:href="#0"/></defs><circle style="opacity:1;fill:url(#linearGradient4160);fill-opacity:1;stroke:none;stroke-width:1.5;stroke-linecap:round;stroke-linejoin:round;stroke-miterlimit:4;stroke-dasharray:none;stroke-opacity:.85490196" id="path4152" cx="24" cy="24" r="24"/><g style="enable-background:new" id="g14" transform="translate(0.00223666,-0.00850875)"><g style="fill:#fff;fill-opacity:.85100002" id="g18" transform="matrix(0.82364,0,0,0.82364,-2.453,-824.66)"><path style="fill:#fff;fill-opacity:.85100002" id="path20" d="m 648.3,306.84 -69.51,0 c -17.59,0 -31.784,14.07 -32.391,31.419 -14.437,134.17 -127.98,238.62 -266.16,238.62 -147.88,0 -267.62,-119.61 -267.62,-267.25 0,-146.3 120.58,-265.19 266.52,-267.25 l 0,43.43 c 0,19.775 14.07,28.63 31.3,19.775 l 223.09,-114.15 c 17.226,-8.857 17.226,-23.17 0,-32.03 l -223.09,-113.91 c -17.226,-8.855 -31.3,0 -31.3,19.653 l 0,43.793 c -219.94,2.063 -400.33,180.88 -400.33,400.94 0,221.39 179.66,400.94 401.42,400.94 212.06,0 385.77,-164.14 400.33,-372.31 0.121,-17.469 -14.558,-31.663 -32.27,-31.663 z" transform="matrix(0.03906,0,0,0.03906,21.19,1019.59)"/></g></g></svg>