<svg xmlns="http://www.w3.org/2000/svg" xmlns:svg="http://www.w3.org/2000/svg" xmlns:xlink="http://www.w3.org/1999/xlink" id="svg5453" width="48" height="48" version="1.1"><defs id="defs5455"><linearGradient id="linearGradient5459" x1="31.19" x2="29.945" y1="56.637" y2="32.589" gradientTransform="matrix(0.84750837,-0.01168044,0.01168044,0.84750837,22.288376,-23.580268)" gradientUnits="userSpaceOnUse" xlink:href="#linearGradient4355"/><linearGradient id="linearGradient4355"><stop style="stop-color:#d5dbff;stop-opacity:1" id="stop4357" offset="0"/><stop style="stop-color:#f9ffff;stop-opacity:1" id="stop4359" offset="1"/></linearGradient><linearGradient id="linearGradient4496" x1="543.948" x2="543.743" y1="484.808" y2="427.538" gradientTransform="matrix(0.5289354,0,0,0.5289354,-351.10893,-245.43498)" gradientUnits="userSpaceOnUse" xlink:href="#linearGradient4491-0"/><linearGradient id="linearGradient4491-0"><stop style="stop-color:#ff5b4f;stop-opacity:1" id="stop4493-6" offset="0"/><stop style="stop-color:#ff7369;stop-opacity:1" id="stop4495-2" offset="1"/></linearGradient><linearGradient id="linearGradient4496-9" x1="556.435" x2="555.298" y1="470.481" y2="421.868" gradientTransform="matrix(0.52893541,0,0,0.52893541,-349.01853,-245.44065)" gradientUnits="userSpaceOnUse" xlink:href="#linearGradient4227-3"/><linearGradient id="linearGradient4227-3"><stop style="stop-color:#566069;stop-opacity:1" id="stop4229-0" offset="0"/><stop style="stop-color:#6c7884;stop-opacity:1" id="stop4231-4" offset="1"/></linearGradient></defs><metadata id="metadata5458"/><g id="layer1" transform="translate(-384.57143,-499.798)"><g style="display:inline;enable-background:new" id="g4238" transform="translate(225.81911,462.44565)"><g style="display:inline" id="layer1-8" transform="matrix(0.22655187,0,0,0.22655187,106.94841,54.31088)"><g id="g4370" transform="matrix(4.4140002,0,0,4.4140002,59.275211,39.357303)"><g id="g4251" transform="translate(9.5059266e-7,-4.9999982)"><rect id="rect4473-3" width="40.627" height="31.2" x="-82.299" y="-19.869" ry="1.217" transform="matrix(-0.99998029,-0.00627818,-0.00627818,0.99998029,0,0)" style="opacity:1;fill:url(#linearGradient4496-9);fill-opacity:1;stroke:none;stroke-width:2.6671834;stroke-linecap:round;stroke-linejoin:round;stroke-miterlimit:4;stroke-dasharray:none;stroke-opacity:1"/><rect id="rect4473" width="40.627" height="31.2" x="-84.39" y="-19.863" ry="1.217" transform="matrix(-0.98432173,-0.17638237,-0.17638237,0.98432173,0,0)" style="opacity:1;fill:url(#linearGradient4496);fill-opacity:1;stroke:none;stroke-width:2.6671834;stroke-linecap:round;stroke-linejoin:round;stroke-miterlimit:4;stroke-dasharray:none;stroke-opacity:1"/><path id="path4198" d="M 66.735313,-3.6014232 64.237286,12.971661 71.761204,18.251898 66.735313,-3.6014232 Z" style="opacity:.85;fill:#fff;fill-opacity:.8508065;fill-rule:evenodd;stroke:none;stroke-width:1px;stroke-linecap:butt;stroke-linejoin:miter;stroke-opacity:1"/><path id="path4198-8" d="M 65.795401,-3.4219412 52.070094,12.968948 64.270618,6.6982008 Z" style="opacity:.85;fill:#fff;fill-opacity:.8508065;fill-rule:evenodd;stroke:none;stroke-width:1px;stroke-linecap:butt;stroke-linejoin:miter;stroke-opacity:1"/><path id="path4198-84" d="M 59.07377,10.264938 53.429381,14.2407 71.362202,18.888621 59.073759,10.264987 Z m -5.176232,4.021268 0.105295,-0.05035 -0.500224,-0.06955 z" style="opacity:.85;fill:#fff;fill-opacity:.8508065;fill-rule:evenodd;stroke:none;stroke-width:1px;stroke-linecap:butt;stroke-linejoin:miter;stroke-opacity:1"/><path id="path5451" d="M 48.698005,3.5909348 A 10.466615,10.466615 0 0 0 38.376002,14.201289 10.466615,10.466615 0 0 0 48.986354,24.52104 10.466615,10.466615 0 0 0 59.308358,13.91294 10.466615,10.466615 0 0 0 48.698005,3.5909348 Z m -3.081733,6.09138 7.708838,4.2441412 -7.52862,4.555018 -0.180217,-8.7991592 z" style="opacity:1;fill:url(#linearGradient5459);fill-opacity:1;stroke:none;stroke-width:.30261195;stroke-linecap:round;stroke-linejoin:round;stroke-miterlimit:4;stroke-dasharray:none;stroke-opacity:1"/></g></g></g></g></g></svg>