<svg xmlns="http://www.w3.org/2000/svg" viewBox="0 0 48 48"><defs><linearGradient id="0" x1="-48.953" x2="-49.554" y1="-5.178" y2="-30.891" gradientUnits="userSpaceOnUse"><stop stop-color="#566069"/><stop offset="1" stop-color="#6c7884"/></linearGradient><linearGradient id="1" x1="43.691" x2="42.36" y1="15.429" y2="-4.937" gradientUnits="userSpaceOnUse"><stop stop-color="#d5dbff"/><stop offset="1" stop-color="#f9ffff"/></linearGradient><linearGradient id="2" x1="-56.27" x2="-56.38" y1="3.509" y2="-26.783" gradientUnits="userSpaceOnUse"><stop stop-color="#197ff1"/><stop offset="1" stop-color="#21c6fb"/></linearGradient></defs><g transform="matrix(.99999 0 0 .99999-32.681 29.512)"><rect width="40.627" height="31.2" x="-76.55" y="-28.46" fill="url(#0)" rx="1.217" transform="matrix(-.99998-.00628-.00628.99998 0 0)"/><rect width="40.627" height="31.2" x="-77.26" y="-27.351" fill="url(#2)" rx="1.217" transform="matrix(-.98432-.17638-.17638.98432 0 0)"/><path fill="url(#1)" d="M43.005-5.0361A10.466615 10.466615 0 0 0 32.683 5.57425 10.466615 10.466615 0 0 0 43.29335 15.893999 10.466615 10.466615 0 0 0 53.61535 5.2859 10.466615 10.466615 0 0 0 43.005 -5.0361m-3.082 6.091l7.709 4.244-7.529 4.555-.18-8.799z"/></g></svg>