<svg xmlns="http://www.w3.org/2000/svg" viewBox="0 0 48 48"><defs><linearGradient id="0" x1="-54.669" x2="-55.27" y1="-1.587" y2="-27.3" gradientUnits="userSpaceOnUse"><stop stop-color="#566069"/><stop offset="1" stop-color="#6c7884"/></linearGradient><linearGradient id="1" x1="49.38" x2="48.05" y1="19.06" y2="-1.31" gradientUnits="userSpaceOnUse"><stop stop-color="#d5dbff"/><stop offset="1" stop-color="#f9ffff"/></linearGradient><linearGradient id="2" x1="-62.51" x2="-62.62" y1="6.075" y2="-24.22" gradientUnits="userSpaceOnUse"><stop stop-color="#197ff1"/><stop offset="1" stop-color="#21c6fb"/></linearGradient></defs><g transform="matrix(.99999 0 0 .99999-38.37 25.882)"><rect width="40.627" height="31.2" x="-82.27" y="-24.869" fill="url(#0)" rx="1.217" transform="matrix(-.99998-.00628-.00628.99998 0 0)"/><rect width="40.627" height="31.2" x="-83.51" y="-24.785" fill="url(#2)" rx="1.217" transform="matrix(-.98432-.17638-.17638.98432 0 0)"/><path fill="url(#1)" d="m48.698152-1.408679a10.466615 10.466615 0 0 0 -10.322 10.61035 10.466615 10.466615 0 0 0 10.61035 10.319749 10.466615 10.466615 0 0 0 10.322 -10.608099 10.466615 10.466615 0 0 0 -10.61035 -10.322m-3.082 6.091l7.709 4.244-7.529 4.555-.18-8.799"/></g></svg>