<svg xmlns="http://www.w3.org/2000/svg" xmlns:svg="http://www.w3.org/2000/svg" xmlns:xlink="http://www.w3.org/1999/xlink" id="svg2" version="1.1" viewBox="0 0 48 48"><metadata id="metadata22"/><defs id="defs4"><linearGradient id="linearGradient4265" x1="407.958" x2="407.82" y1="517.518" y2="512.526" gradientTransform="matrix(0.89631,0,0,0.89631,-432.71832,-441.43832)" gradientUnits="userSpaceOnUse" xlink:href="#0-1"/><linearGradient id="0-1" x1="400.51" x2="400.7" y1="546.07" y2="517.77" gradientUnits="userSpaceOnUse"><stop id="stop4278" stop-color="#2e3e46"/><stop id="stop4280" offset="1" stop-color="#435a64"/></linearGradient><linearGradient id="2" x1="248.2" x2="248.04" y1="-6.236" y2="-40.76" gradientTransform="matrix(0.43089207,0,0,0.43376922,-176.39159,16.09209)" gradientUnits="userSpaceOnUse" xlink:href="#0-1"/><linearGradient id="linearGradient4209" x1="407.896" x2="407.439" y1="542.633" y2="504.965" gradientTransform="matrix(0.89631,0,0,0.89631,-432.71832,-441.43832)" gradientUnits="userSpaceOnUse" xlink:href="#0-6"/><linearGradient id="0-6" x2="0" y1="545.14" y2="518.14" gradientUnits="userSpaceOnUse"><stop id="stop4230" stop-color="#197ff1"/><stop id="stop4232" offset="1" stop-color="#21c6fb"/></linearGradient></defs><g id="g4181" transform="translate(90.508472,-0.81355931)"><path style="color:#000;fill:url(#2);fill-opacity:1" id="path20" d="m -88.381882,3.3041397 c -0.477428,0 -0.861784,0.3869222 -0.861784,0.8675384 l 0,35.3999059 44.838629,0.104105 0,-30.3811964 c 0,-0.4806163 -0.384356,-0.8675384 -0.861784,-0.8675384 l -20.941786,0 c -0.878589,0.078078 -0.991482,-0.039039 -1.425391,-0.6224588 -0.615744,-0.8293668 -1.545179,-3.0624107 -2.151013,-3.8731254 -0.486477,-0.7083451 -0.56533,-0.625929 -1.37196,-0.625929 z"/><rect style="fill:url(#linearGradient4209);fill-opacity:1;stroke:none;stroke-width:.55784273;stroke-miterlimit:4;stroke-dasharray:none" id="rect22" width="47.997" height="35.333" x="-90.507" y="10.992" rx="1.663"/><rect style="fill:url(#linearGradient4265);fill-opacity:1;fill-rule:evenodd" id="rect24" width="14.52" height="2.689" x="-73.773" y="19.65" rx="1.182"/></g></svg>