<svg xmlns="http://www.w3.org/2000/svg" xmlns:xlink="http://www.w3.org/1999/xlink" viewBox="0 0 48 48"><defs><linearGradient id="9" x1="-34.507" x2="-35.09" y1="-8.02" y2="-32.798" gradientUnits="userSpaceOnUse" xlink:href="#3"/><linearGradient id="6" x2="0" y1="-.413" y2="-3.765" gradientUnits="userSpaceOnUse" xlink:href="#3"/><linearGradient id="8" x1="-42.34" x2="-42.45" y1="1.559" y2="-27.631" gradientUnits="userSpaceOnUse" xlink:href="#1"/><linearGradient id="7" x1="24.406" x2="24.27" y1="-4.811" y2="-7.02" gradientUnits="userSpaceOnUse" xlink:href="#3"/><linearGradient id="5" x1="391.57" x2="390.88" y1="531.8" y2="507.67" gradientTransform="matrix(.70094 0 0 .86417-251.19-444.5)" gradientUnits="userSpaceOnUse"><stop stop-color="#d3d3d3"/><stop offset="1" stop-color="#fcf9f9"/></linearGradient><linearGradient id="0" x1="35.611" x2="35.32" y1="14.953" y2="-3.499" gradientUnits="userSpaceOnUse" xlink:href="#1"/><linearGradient id="4" x1="36.26" x2="35.638" y1="15.981" y2="-6.51" gradientUnits="userSpaceOnUse" xlink:href="#3"/><linearGradient id="1"><stop stop-color="#197ff1"/><stop offset="1" stop-color="#21c6fb"/></linearGradient><linearGradient id="3"><stop stop-color="#222c35"/><stop offset="1" stop-color="#545e67"/></linearGradient><linearGradient id="2" x1="29.43" x2="43.633" y1="-2.02" y2="12.181" gradientUnits="userSpaceOnUse" xlink:href="#3"/></defs><g transform="matrix(.99999 0 0 .99999-18.371 30.882)"><rect width="39.15" height="30.06" x="-61.1" y="-30.455" fill="url(#9)" rx="1.172" transform="matrix(-.99998-.00628-.00628.99998 0 0)"/><rect width="39.15" height="30.06" x="-62.57" y="-28.18" fill="url(#8)" rx="1.172" transform="matrix(-.98432-.17638-.17638.98432 0 0)"/><rect width="3.882" height="1.941" x="21.818" y="-6.752" fill="url(#7)" rx=".647"/><rect width="33.645" height="20.74" x="18.375" y="-5.674" fill="url(#5)" rx=".971"/><path fill="url(#4)" d="m24.433995 4.770649a11.788733 11.788733 0 0 1 11.78873 -11.78873 11.788733 11.788733 0 0 1 11.78873 11.78873A11.788733 11.788733 0 0 1 36.22272 16.559387 11.788733 11.788733 0 0 1 24.433995 4.770649"/><circle cx="36.22" cy="4.771" r="9.263" fill="url(#2)"/><circle cx="36.22" cy="4.771" r="8.421" fill="url(#0)"/><circle cx="22.14" cy="-2.089" r="1.676" fill="url(#6)" fill-rule="evenodd"/></g></svg>