<svg xmlns="http://www.w3.org/2000/svg" xmlns:svg="http://www.w3.org/2000/svg" xmlns:xlink="http://www.w3.org/1999/xlink" id="svg2" version="1.1" viewBox="0 0 48 48"><metadata id="metadata32"/><defs id="defs4"><linearGradient id="linearGradient6" x1="0" x2="47" gradientUnits="userSpaceOnUse"><stop id="stop8" stop-color="#a9a3d4"/><stop id="stop10" offset=".47" stop-color="#87baff"/><stop id="stop12" offset="1" stop-color="#89ec85"/></linearGradient><linearGradient id="0" x2="0" y1="556.24" y2="510.24" gradientUnits="userSpaceOnUse"><stop id="stop15" stop-color="#dbdada"/><stop id="stop17" offset="1" stop-color="#fff"/></linearGradient><linearGradient id="1" x1="421.9" x2="422.52" y1="540.44" y2="522.5" gradientUnits="userSpaceOnUse"><stop id="stop20" stop-color="#1584d8"/><stop id="stop22" offset="1" stop-color="#1cb2ff"/></linearGradient><linearGradient id="linearGradient4166" x1="319.57" x2="319.376" y1="557.019" y2="509.85" gradientUnits="userSpaceOnUse" xlink:href="#1"/><linearGradient id="linearGradient4168" x1="421.9" x2="422.52" y1="540.44" y2="522.5" gradientUnits="userSpaceOnUse" xlink:href="#1"/></defs><g id="g24" transform="matrix(1.0168712,0,0,1.0168712,-495.3696,-511.61465)" style="stroke-width:1.31700003"><rect id="rect26" width="46" height="46" x="296.96" y="510.24" rx="23" transform="matrix(0.99507,0,0,0.99507,192.37,-3.883)" style="fill:url(#0);stroke:url(#linearGradient4166);stroke-width:1.43748367;stroke-miterlimit:4;stroke-dasharray:none"/><path id="path28" d="m 423.44,523.59 -1.172,4.7 3.223,0 1.184,-4.7 2.698,0 -1.184,4.7 3.381,0 0,2.6 -4.03,0 -0.842,3.345 3.467,0 0,2.625 -4.102,0 -1.172,4.675 -2.698,0 1.172,-4.675 -3.223,0 -1.172,4.675 -2.722,0 1.172,-4.675 -3.406,0 0,-2.625 4,0 0.854,-3.345 -3.455,0 0,-2.6 4.126,0 1.172,-4.7 2.722,0 m 1.379,7.3 -3.223,0 -0.854,3.345 3.223,0 0.854,-3.345" transform="matrix(1.33747,0,0,1.33747,-54.714,-185.56)" style="fill:url(#linearGradient4168)"/></g></svg>