<svg xmlns="http://www.w3.org/2000/svg" viewBox="0 0 48 48"><defs><linearGradient id="0" x1="-1092.91" x2="-1060.26" y1="203.1" y2="104.85" gradientTransform="matrix(.39825 0 0 .39372 482.62-60.764)" gradientUnits="userSpaceOnUse"><stop stop-color="#1365f4"/><stop offset="1" stop-color="#05b2fc"/></linearGradient><linearGradient id="1" x1="-989.67" x2="-1003.64" y1="433.28" y2="317.35" gradientTransform="matrix(.35517 0 0 .34748 412.36-120.37)" gradientUnits="userSpaceOnUse"><stop stop-color="#d5dbff"/><stop offset="1" stop-color="#f9ffff"/></linearGradient><linearGradient id="2" x1="-1092.91" x2="-1060.26" y1="203.1" y2="104.85" gradientTransform="matrix(.35887 0 0 .35174 430.72-39.467)" gradientUnits="userSpaceOnUse"><stop stop-color="#ffce69"/><stop offset="1" stop-color="#ffce54"/></linearGradient></defs><g transform="matrix(.99999 0 0 .99999-33.371 20.882)"><rect width="32.21" height="40.32" x="35.762" y=".12" fill="url(#2)" rx=".984" transform="matrix(.9499-.31256.30954.95089 0 0)"/><rect width="35.455" height="42.711" x="40.953" y="-10.468" fill="url(#1)" rx="1.042" transform="matrix(.99224-.12435.13899.99029 0 0)"/><rect width="35.749" height="45.13" x="44.32" y="-16.452" fill="url(#0)" rx="1.102" transform="matrix(.99941-.03422.01692.99986 0 0)"/><g fill="#fff" fill-opacity=".847"><path d="m62.24-2.28c-4.51.155-8.306 2.947-9.959 6.845-.051.118-.046.254.013.371 1.917 3.775 5.896 6.3 10.405 6.145 4.51-.155 8.306-2.947 9.959-6.845.051-.118.046-.254-.013-.371-1.917-3.775-5.896-6.3-10.405-6.145m.388 11.29c-2.547.087-4.68-1.906-4.767-4.45-.087-2.547 1.906-4.68 4.45-4.767 2.547-.087 4.68 1.906 4.767 4.45.087 2.545-1.906 4.68-4.45 4.767z"/><circle cx="62.28" cy="6.541" r="2.952" transform="matrix(.99941-.03433.03433.99941 0 0)"/></g></g></svg>