<svg xmlns="http://www.w3.org/2000/svg" xmlns:svg="http://www.w3.org/2000/svg" xmlns:xlink="http://www.w3.org/1999/xlink" id="svg2" version="1.1" viewBox="0 0 48 48"><metadata id="metadata32"/><defs id="defs4"><linearGradient id="3" x1="-424.98" x2="-423.09" y1="227.95" y2="519.48" gradientUnits="userSpaceOnUse" xlink:href="#2"/><linearGradient id="2" x2="0" y1="542.8" y2="507.8" gradientTransform="matrix(1.24773 0 0 1.21842-512.68-600.54)" gradientUnits="userSpaceOnUse"><stop id="stop8" stop-color="#155bc2"/><stop id="stop10" offset="1" stop-color="#369dff"/></linearGradient><linearGradient id="0" x1="-423.09" x2="-424.98" y1="519.48" y2="227.95" gradientUnits="userSpaceOnUse" xlink:href="#2"/><linearGradient id="1" x1="-206.67" x2="-208.33" y1="315.36" y2="23.362" gradientTransform="matrix(.99785 0 0 1-218.94 203)" gradientUnits="userSpaceOnUse" xlink:href="#2"/><linearGradient id="0-0" x1="-423.09" x2="-424.98" y1="519.48" y2="227.95" gradientTransform="matrix(0.10324,0,0,0.10324,80.136662,-31.099734)" gradientUnits="userSpaceOnUse" xlink:href="#2-9"/><linearGradient id="2-9" x2="0" y1="542.8" y2="507.8" gradientTransform="matrix(1.24773,0,0,1.21842,-512.68,-600.54)" gradientUnits="userSpaceOnUse"><stop id="stop8-5" stop-color="#155bc2"/><stop id="stop10-0" offset="1" stop-color="#369dff"/></linearGradient><linearGradient id="3-2" x1="-424.98" x2="-423.09" y1="227.95" y2="519.48" gradientTransform="matrix(0.10324,0,0,0.10324,80.136662,-31.099734)" gradientUnits="userSpaceOnUse" xlink:href="#2-9"/><linearGradient id="linearGradient4212" x2="0" y1="542.8" y2="507.8" gradientTransform="matrix(1.24773,0,0,1.21842,-512.68,-600.54)" gradientUnits="userSpaceOnUse"><stop id="stop4214" stop-color="#155bc2"/><stop id="stop4216" offset="1" stop-color="#369dff"/></linearGradient></defs><g id="g4244" transform="translate(60.406779,19.728814)"><path id="path16-4" d="m -59.336316,-14.191973 c -0.476737,0 -0.860536,0.383799 -0.860536,0.860537 l 0,16.6638562 47.759769,0.103264 0,-12.5121985 c 0,-0.4767372 -0.383799,-0.8605364 -0.860536,-0.8605364 l -25.889237,0 c -0.877317,0.077448 -0.990047,-0.038724 -1.423327,-0.6174353 -0.614853,-0.822672 -1.542942,-2.213729 -2.147899,-3.01618 -0.485773,-0.702628 -0.564512,-0.620877 -1.369974,-0.620877 z" style="color:#000;fill:#1864d4"/><rect id="rect18-9" width="47.888" height="30.469" x="12.463" y="-7.784" rx=".994" transform="scale(-1,1)" style="fill:url(#0-0);stroke:url(#3-2);stroke-width:.10324"/></g><g id="g14" transform="matrix(-.10324 0 0 .10324-19.726-11.395)"><rect id="rect20" width="462.85" height="295.13" x="-654.92" y="225.8" fill="none" stroke="url(#1)" stroke-linecap="round" stroke-width="2" rx="9.63"/><g id="g22" fill="#fff" fill-opacity=".85" transform="matrix(-.38932 0 0 .38932-174.6 188.39)"><path id="path24" d="m447.47 384.75c17.779 0 28.28-14.546 28.28-27.476 0-14.546-10.506-25.05-28.28-25.05h-141.83c-17.779 0-28.688 10.506-28.688 25.05v229.51c0 14.14 10.91 25.05 28.688 25.05 14.14 0 24.24-10.91 24.24-25.05v-84.85h103.04c14.546 0 29.09-10.91 29.09-24.24 0-14.14-14.546-28.688-29.09-28.688h-103.04v-64.25h117.58"/><path id="path26" d="m596.39 586.78c0 35.961 53.34 35.15 53.34 0v-204.05h67.07c35.961 0 35.961-51.72 0-51.72h-191.12c-35.15 0-35.15 51.72 0 51.72h70.71v204.05"/><path id="path28" d="m782.84 583.95c0 17.779 14.14 27.88 27.476 27.88 14.546 0 25.86-10.1 25.86-27.88v-53.34h67.48c52.53 0 99.8-35.557 99.8-99.4 0-67.48-47.28-102.63-99.8-102.63h-93.34c-16.971 0-27.476 14.546-27.476 27.88v227.49m120.81-204.45c27.07 0 48.49 23.436 48.49 51.72 0 25.05-21.415 48.891-48.49 48.891h-67.48v-100.61h67.48"/></g></g></svg>