<svg xmlns="http://www.w3.org/2000/svg" xmlns:svg="http://www.w3.org/2000/svg" xmlns:xlink="http://www.w3.org/1999/xlink" id="svg2" version="1.1" viewBox="0 0 48 48"><metadata id="metadata24"/><defs id="defs4"><linearGradient id="0" x1="-123.97" x2="-125.19" y1="73.5" y2="-26.05" gradientTransform="matrix(0.49433,0,0,0.4778,86.64,13.1)" gradientUnits="userSpaceOnUse" spreadMethod="pad"><stop id="stop7" stop-color="#e1e1e1"/><stop id="stop9" offset="1" stop-color="#f4f4ff"/></linearGradient><linearGradient id="1" x1="425.71" x2="426.43" y1="517.57" y2="476.11" gradientUnits="userSpaceOnUse"><stop id="stop12" stop-color="#c52828"/><stop id="stop14" offset="1" stop-color="#ff5454"/></linearGradient><linearGradient id="linearGradient4174" x1="425.71" x2="426.43" y1="517.57" y2="476.11" gradientTransform="matrix(0.5641,0,0,0.5641,-216.3459,-256.36942)" gradientUnits="userSpaceOnUse" xlink:href="#0"/><linearGradient id="linearGradient4195" x1="-123.97" x2="-125.19" y1="73.5" y2="-26.05" gradientTransform="matrix(0.49433,0,0,0.4778,86.638,13.098)" gradientUnits="userSpaceOnUse" xlink:href="#1"/></defs><path id="path16-1" d="m 2.9800002,-0.002 42.0399998,0 c 1.652,0 2.982,1.33 2.982,2.982 l 0,42.04 c 0,1.652 -1.33,2.982 -2.982,2.982 l -42.0399998,0 c -1.652,0 -2.982,-1.33 -2.982,-2.982 l 0,-42.04 c 0,-1.652 1.33,-2.982 2.982,-2.982" style="fill:url(#linearGradient4195);fill-opacity:1;fill-rule:evenodd"/><path style="fill:url(#linearGradient4174);fill-opacity:1" id="path20-4" d="M 36.00002,24 A 12.00002,12.00002 0 0 1 24,36.000021 12.00002,12.00002 0 0 1 11.99998,24 12.00002,12.00002 0 0 1 24,11.99998 12.00002,12.00002 0 0 1 36.00002,24"/></svg>