<svg xmlns="http://www.w3.org/2000/svg" viewBox="0 0 48 48"><defs><linearGradient id="0" x1="-1092.91" x2="-1060.26" y1="203.1" y2="104.85" gradientTransform="matrix(.3555 0 0 .3508 406.26-72.43)" gradientUnits="userSpaceOnUse"><stop stop-color="#6c7482"/><stop offset="1" stop-color="#868d97"/></linearGradient><linearGradient id="1" x1="-989.67" x2="-1003.64" y1="433.28" y2="317.35" gradientTransform="matrix(.35601 0 0 .35122 387.08-150.12)" gradientUnits="userSpaceOnUse"><stop stop-color="#1584d8"/><stop offset="1" stop-color="#1cb2ff"/></linearGradient></defs><g transform="matrix(.99999 0 0 .99999-3.371 45.882)"><rect width="31.911" height="40.21" x="15.01" y="-32.951" fill="url(#0)" rx=".981" transform="matrix(.94912-.31493.30721.95164 0 0)"/><rect width="35.539" height="43.17" x="14.798" y="-39.03" fill="url(#1)" rx="1.054" transform="matrix(.9921-.12541.13781.99046 0 0)"/><path fill="#fff" fill-opacity=".847" d="m22.316-14.294l.788 3.819 3.819-.788 7.654-11.635-4.607-3.03zm14.944-12.668c.321-.487.189-1.124-.298-1.444l-2.879-1.894c-.487-.321-1.124-.189-1.444.298l-1.581 2.419 4.607 3.03z"/></g></svg>