<svg xmlns="http://www.w3.org/2000/svg" viewBox="0 0 48 48"><defs><linearGradient id="0" x1="25.276" x2="24.709" y1="47.535" y2="1.316" gradientUnits="userSpaceOnUse"><stop stop-color="#dce2ff"/><stop offset="1" stop-color="#f8feff"/></linearGradient><linearGradient id="1" x1="10.366" x2="10.11" y1="50.599" y2="-.747" gradientUnits="userSpaceOnUse"><stop stop-color="#242425"/><stop offset="1" stop-color="#2c2c2e"/></linearGradient><linearGradient id="2" x2="0" y1="18.758" y2="1.078" gradientUnits="userSpaceOnUse"><stop stop-color="#29292b"/><stop offset="1" stop-color="#2c2c2e"/></linearGradient></defs><g fill-rule="evenodd" transform="matrix(.96852 0 0 .96852.759.762)"><rect width="45.08" height="46.644" x="1.458" y=".678" fill="url(#0)" stroke-width=".464" rx="2.898"/><path fill="none" stroke="url(#1)" stroke-linecap="round" stroke-linejoin="round" stroke-width="3" d="m3.784 0h34.14 6.291c1.652 0 2.982 1.33 2.982 2.982v42.04c0 1.652-1.33 2.982-2.982 2.982h-40.43c-1.652 0-2.982-1.33-2.982-2.982v-42.04c0-1.652 1.33-2.982 2.982-2.982" transform="matrix(.97176 0 0 .97176.678.678)"/><path fill="url(#2)" d="m26.11 1.091l19.929 17.668.006-17.68"/></g></svg>