<svg xmlns="http://www.w3.org/2000/svg" xmlns:xlink="http://www.w3.org/1999/xlink" viewBox="0 0 48 48"><defs><linearGradient id="0" x2="0" y1="47.37" y2="-1.429" gradientUnits="userSpaceOnUse"><stop stop-color="#c52828"/><stop offset="1" stop-color="#ff5454"/></linearGradient><linearGradient id="1" x1="409.17" x2="408.7" y1="550.49" y2="496.21" gradientUnits="userSpaceOnUse" xlink:href="#0"/></defs><g><circle cx="82.37" cy="23.12" r="24" fill="url(#0)" transform="matrix(.99999 0 0 .99999-58.37.882)"/></g><g fill="#fbe4e4" stroke="url(#1)" stroke-linecap="square" stroke-linejoin="bevel" stroke-width=".914" transform="matrix(.93093 0 0 .93093-356.36-463.47)"><g stroke-width=".686"><path fill-rule="evenodd" d="m409.12 503.71l-4.454 6.976 3.999 5.652 4.454-5.564-3.999-7.06"/><path d="m409.12 503.71l-4.454 6.976 3.999 5.652 4.454-5.564-3.999-7.06z"/><path fill-rule="evenodd" d="m413.12 510.77l-4.454 5.564 7.636-3.091 4.908-5.563-8.09 3.091"/><path d="m413.12 510.77l-4.454 5.564 7.636-3.091 4.908-5.563-8.09 3.091z"/><path fill-rule="evenodd" d="m416.3 513.24l-.092 8.302 4.274-5.563.726-8.302-4.908 5.563"/><path d="m416.3 513.24l-.092 8.302 4.274-5.563.726-8.302-4.908 5.563z"/><path fill-rule="evenodd" d="m420.48 515.98l-4.273 5.563 6.636 2.384 5.635-6.447-7.998-1.501"/><path d="m420.48 515.98l-4.273 5.563 6.636 2.384 5.635-6.447-7.998-1.501z"/><path fill-rule="evenodd" d="m422.84 523.93l-6.638-2.384 4.819 6.094 7.636 3-5.818-6.711"/><path d="m422.84 523.93l-6.638-2.384 4.819 6.094 7.636 3-5.818-6.711z"/><path fill-rule="evenodd" d="m421.03 527.64l-7.636 2.031 6.999 1.943 8.273-.972-7.636-3"/><path d="m421.03 527.64l-7.636 2.031 6.999 1.943 8.273-.972-7.636-3z"/><path fill-rule="evenodd" d="m420.39 531.61l-6.999-1.943-.454 6.447 7.636 3.974-.183-8.478"/><path d="m420.39 531.61l-6.999-1.943-.454 6.447 7.636 3.974-.183-8.478z"/><path fill-rule="evenodd" d="m408.75 536.21l-.091 7.683 4.273-7.771.454-6.447-4.636 6.535"/><path d="m408.75 536.21l-.091 7.683 4.273-7.771.454-6.447-4.636 6.535z"/><path fill-rule="evenodd" d="m404.66 510.68l-7.998-3.268 4.636 6 7.363 2.915-4-5.652"/><path d="m404.66 510.68l-7.998-3.268 4.636 6 7.363 2.915-4-5.652z"/><path fill-rule="evenodd" d="m401.3 513.42l-4.637-6 .909 8.655 4 4.945-.272-7.595"/><path d="m401.3 513.42l-4.637-6 .909 8.655 4 4.945-.272-7.595z"/><path fill-rule="evenodd" d="m397.57 516.07l-8.09 1.413 5.909 5.916 6.182-2.384-4-4.945"/><path d="m397.57 516.07l-8.09 1.413 5.909 5.916 6.182-2.384-4-4.945z"/><path fill-rule="evenodd" d="m395.39 523.4l-6.909 6.359 8-2.472 5.091-6.27-6.182 2.384"/><path d="m395.39 523.4l-6.909 6.359 8-2.472 5.091-6.27-6.182 2.384z"/><path fill-rule="evenodd" d="m396.48 527.29l-8 2.472 9.183 1.413 6.635-1.324-7.818-2.561"/><path d="m396.48 527.29l-8 2.472 9.183 1.413 6.635-1.324-7.818-2.561z"/><path fill-rule="evenodd" d="m404.3 529.85l-6.636 1.326-1.454 9.01 8.181-4.151-.091-6.182"/><path d="m404.3 529.85l-6.636 1.326-1.454 9.01 8.181-4.151-.091-6.182z"/><path fill-rule="evenodd" d="m404.3 529.85l.091 6.182 4.273 7.859.091-7.683-4.454-6.359"/><path d="m404.3 529.85l.091 6.182 4.273 7.859.091-7.683-4.454-6.359z"/><path fill-rule="evenodd" d="m408.75 523.84l7.453-2.296.092-8.302-7.636 3.091.091 7.507"/><path d="m408.75 523.84l7.453-2.296.092-8.302-7.636 3.091.091 7.507z"/><path fill-rule="evenodd" d="m416.21 521.55l-7.453 2.296 4.636 5.828 7.636-2.031-4.819-6.093"/><path d="m416.21 521.55l-7.453 2.296 4.636 5.828 7.636-2.031-4.819-6.093z"/><path fill-rule="evenodd" d="m408.75 523.84l-4.454 6 4.454 6.359 4.636-6.535-4.636-5.828"/><path d="m408.75 523.84l-4.454 6 4.454 6.359 4.636-6.535-4.636-5.828z"/><path fill-rule="evenodd" d="m396.48 527.29l7.818 2.561 4.454-6-7.181-2.826-5.091 6.27"/><path d="m396.48 527.29l7.818 2.561 4.454-6-7.181-2.826-5.091 6.27z"/><path fill-rule="evenodd" d="m408.75 523.84l-.091-7.507-7.364-2.915.274 7.595 7.181 2.826"/><path d="m408.75 523.84l-.091-7.507-7.364-2.915.274 7.595 7.181 2.826z"/></g><g letter-spacing="0" line-height="125%" word-spacing="0"><flowRoot stroke-width=".701" font-family="'Helvetica 65 Medium'" font-size="35" font-weight="500" text-align="start" transform="matrix(1.30457 0 0 1.30457 458.3-824.2)"><flowRegion><path stroke-width=".701" d="m4.5-48.75h38.75v38.75h-38.75z"/></flowRegion><flowPara/></flowRoot></g></g></svg>