<svg xmlns="http://www.w3.org/2000/svg" viewBox="0 0 48 48"><defs><linearGradient id="3" x1="13.413" x2="13.261" y1="-4.607" y2="-16.01" gradientUnits="userSpaceOnUse"><stop stop-color="#eb4646"/><stop offset="1" stop-color="#ff8651"/></linearGradient><linearGradient id="4" x1="5.669" x2="5.538" y1="-4.691" y2="-11.864" gradientUnits="userSpaceOnUse"><stop stop-color="#ffbc00"/><stop offset="1" stop-color="#ffec00"/></linearGradient><linearGradient id="2" x2="0" y1="1.37" y2="-5.934" gradientUnits="userSpaceOnUse"><stop stop-color="#0976da"/><stop offset="1" stop-color="#5de5f0"/></linearGradient><linearGradient id="0" x2="0" y1="7.758" y2="-19.542" gradientUnits="userSpaceOnUse"><stop stop-color="#dce2ff"/><stop offset="1" stop-color="#f8feff"/></linearGradient><linearGradient id="1" x1="7.827" x2="7.797" y1="2.421" y2="-5.183" gradientUnits="userSpaceOnUse"><stop stop-color="#4fd127"/><stop offset="1" stop-color="#c6f61a"/></linearGradient></defs><g transform="matrix(1.71427 0 0 1.71427 5.789 33.512)"><circle cx="10.625" cy="-5.542" r="14" fill="url(#0)"/><g stroke-width="1.317"><path fill="url(#2)" d="m21.05-5.187c.042-.039.066-.094.066-.156 0-.12-.099-.219-.219-.219h-10.296v5.477h5.477l4.973-5.102"/><path fill="url(#1)" d="m10.226 4.888c.039.042.094.066.156.066.12 0 .219-.099.219-.219v-5.836-4.46h-5.477v5.477l4.03 3.927z"/><path fill="url(#4)" d="m.151-5.936c-.042.039-.066.094-.066.156 0 .12.099.219.219.219h10.296v-5.477h-5.477l-4.973 5.102"/><path fill="url(#3)" d="m10.976-16.01c-.039-.042-.094-.066-.156-.066-.12 0-.219.099-.219.219v10.296h5.477v-5.477l-5.102-4.973"/></g></g></svg>