<svg xmlns="http://www.w3.org/2000/svg" xmlns:xlink="http://www.w3.org/1999/xlink" viewBox="0 0 48 48"><defs><linearGradient id="9" x1="22.18" x2="22.385" y1="31.09" y2="28.978" gradientUnits="userSpaceOnUse"><stop stop-color="#d81d00"/><stop offset="1" stop-color="#da4831"/></linearGradient><linearGradient id="A" x1="25.433" x2="28.797" y1="27.587" y2="25.314" gradientUnits="userSpaceOnUse" xlink:href="#B"/><linearGradient id="G"><stop stop-color="#1074f5"/><stop offset="1" stop-color="#02befd"/></linearGradient><linearGradient id="B"><stop stop-color="#2c2e31"/><stop offset="1" stop-color="#40464d"/></linearGradient><linearGradient id="C" x1="16.916" x2="19.426" y1="27.444" y2="24.697" gradientUnits="userSpaceOnUse" xlink:href="#B"/><linearGradient id="F" x2="0" y1="40.602" y2="14.352" gradientUnits="userSpaceOnUse" xlink:href="#G"/><linearGradient id="D" x1="22.469" x2="23.282" y1="33.435" y2="17.711" gradientUnits="userSpaceOnUse"><stop stop-color="#e7ddd5"/><stop offset="1" stop-color="#f1e9e0"/></linearGradient><linearGradient id="E" x1="405.57" x2="404.97" y1="543.8" y2="502.12" gradientTransform="matrix(.63829 0 0 .6371-236.77-306.14)" gradientUnits="userSpaceOnUse" xlink:href="#G"/><linearGradient id="8" x1="29.971" x2="28.969" y1="31.361" y2="40.611" gradientUnits="userSpaceOnUse" xlink:href="#5"/><linearGradient id="0" x1="17.974" x2="17.489" y1="40.718" y2="32.09" gradientUnits="userSpaceOnUse" xlink:href="#1"/><linearGradient id="1"><stop stop-color="#d22900"/><stop offset="1" stop-color="#ff6443"/></linearGradient><linearGradient id="7" x1="26.957" x2="27.597" y1="40.469" y2="32.09" gradientUnits="userSpaceOnUse" xlink:href="#1"/><linearGradient id="2" x1="20.466" x2="20.03" y1="40.39" y2="32.33" gradientUnits="userSpaceOnUse"><stop stop-color="#e1e1e1"/><stop offset="1" stop-color="#f9f9f9"/></linearGradient><linearGradient id="3" x1="22.704" x2="22.619" y1="40.664" y2="32.16" gradientUnits="userSpaceOnUse" xlink:href="#1"/><linearGradient id="6" x1="15.852" x2="15.04" y1="40.24" y2="31.422" gradientUnits="userSpaceOnUse"><stop stop-color="#e3e3e3"/><stop offset="1" stop-color="#f8f8f8"/></linearGradient><linearGradient id="4" x1="25.347" x2="24.789" y1="32.14" y2="40.58" gradientUnits="userSpaceOnUse" xlink:href="#5"/><linearGradient id="5" x2="0" y1="146" y2="46" gradientUnits="userSpaceOnUse"><stop stop-color="#fafafa"/><stop offset="1" stop-color="#e0e0e0"/></linearGradient></defs><g transform="matrix(1.71427 0 0 1.71427-14.331-21.588)"><ellipse cx="22.382" cy="26.8" fill="url(#E)" rx="13.75" ry="13.725"/><g fill-rule="evenodd"><path fill="url(#D)" d="m14.457 31.29c4.131 3.875 12.941 2.567 16.202.133 1.425-1.379.934-3.364-.357-3.843 3.786-8.408-9.187-13.661-11.911-4.115-1.6-2.983-7.644-.028-3.867 3.871-1.87.3-2.409 3.167-.067 3.953"/><path fill="url(#2)" d="m19.03 39.661l2.313.086-.133-6.534c-.005-1.215-2.119-1.596-2.43-.292z"/><path fill="url(#4)" d="m25.898 39.752l-2.176-.016.199-6.585c.005-1.215 2.119-1.596 2.43-.292z"/></g><circle cx="18.313" cy="27.444" r="1.398" fill="url(#C)"/><circle cx="26.831" cy="27.587" r="1.398" fill="url(#A)"/><g fill-rule="evenodd"><path fill="url(#9)" d="m24.675 29.19c-.331 2.54-4.01 2.393-4.173-.031-.029-.239.021-.218.253-.219l3.622-.02c.317-.029.323.005.298.27" opacity=".848"/><path fill="url(#3)" d="m21.294 39.745l2.46-.04.178-6.272c-.015-1.745-2.72-1.751-2.728-.028z"/><path fill="url(#7)" d="m27.985 39.28l-2.153.395.395-6.867c.033-1.215 2.205-1.548 2.496-.238z"/><path fill="url(#8)" d="m30.16 38.17l-2.165 1.01.734-6.81c.093-1.212 2.209-1.438 2.424-.115z"/><path fill="url(#0)" d="m16.713 38.38l2.443 1.17-.375-6.676c-.033-1.215-2.205-1.548-2.496-.238z"/><path fill="url(#6)" d="m14.817 38.05l1.96.312-.501-5.921c-.093-1.212-2.209-1.438-2.424-.115"/></g><circle cx="22.359" cy="26.602" r="13.441" fill="none" stroke="url(#F)" stroke-linecap="round" stroke-linejoin="round" stroke-width="1.118"/></g></svg>