<svg xmlns="http://www.w3.org/2000/svg" xmlns:svg="http://www.w3.org/2000/svg" xmlns:xlink="http://www.w3.org/1999/xlink" id="svg2" version="1.1" viewBox="0 0 48 48"><metadata id="metadata29"/><defs id="defs4"><linearGradient id="1" x1="403.44" x2="402.47" y1="545.15" y2="518.08" gradientUnits="userSpaceOnUse"><stop id="stop12" stop-color="#d3d3d3"/><stop id="stop14" offset="1" stop-color="#fcf9f9"/></linearGradient><linearGradient id="0-7" x1="18.6" x2="20.03" y1="261.26" y2="155.59" gradientTransform="matrix(0.43355,0,0,0.43481,-57.018323,-61.893693)" gradientUnits="userSpaceOnUse"><stop id="stop11" stop-color="#2a2c2f"/><stop id="stop13" offset="1" stop-color="#424649"/></linearGradient><linearGradient id="linearGradient4177-6" x1="433.114" x2="433.959" y1="543.013" y2="526.996" gradientTransform="matrix(1.5238131,0,0,1.5238131,-633.33003,-747.73399)" gradientUnits="userSpaceOnUse" xlink:href="#1"/><linearGradient id="linearGradient4179-5" x1="403.44" x2="402.47" y1="545.15" y2="518.08" gradientTransform="matrix(1.6013,0,0,1.6013,-614.09842,-790.25491)" gradientUnits="userSpaceOnUse" xlink:href="#0-7"/><linearGradient id="linearGradient4187-4" x1="403.44" x2="402.47" y1="545.15" y2="518.08" gradientTransform="matrix(1.6013,0,0,1.6013,-614.09842,-790.25491)" gradientUnits="userSpaceOnUse" xlink:href="#0-7"/></defs><g id="g4237" transform="translate(-3.2542381,-37.220341)"><circle style="fill:url(#linearGradient4179-5);fill-opacity:1;stroke:url(#linearGradient4187-4);stroke-width:2.44038129;stroke-opacity:1" id="circle23-9" cx="27.254" cy="61.22" r="22.78"/><path style="fill:url(#linearGradient4177-6);fill-opacity:1" id="path25-2" d="m 27.197233,56.83933 c -2.532577,0 -4.571439,2.038862 -4.571439,4.571439 0,2.532577 2.038862,4.571439 4.571439,4.571439 2.532578,0 4.57144,-2.038862 4.57144,-4.571439 0,-2.532577 -2.038862,-4.571439 -4.57144,-4.571439 m -11.428598,0 c -2.532577,0 -4.571439,2.038862 -4.571439,4.571439 0,2.532577 2.038862,4.571439 4.571439,4.571439 2.532577,0 4.571439,-2.038862 4.571439,-4.571439 0,-2.532577 -2.038862,-4.571439 -4.571439,-4.571439 m 22.857196,0 c -2.532577,0 -4.571439,2.038862 -4.571439,4.571439 0,2.532577 2.038862,4.571439 4.571439,4.571439 2.532578,0 4.57144,-2.038862 4.57144,-4.571439 0,-2.532577 -2.038862,-4.571439 -4.57144,-4.571439"/></g></svg>