<svg xmlns="http://www.w3.org/2000/svg" xmlns:svg="http://www.w3.org/2000/svg" xmlns:xlink="http://www.w3.org/1999/xlink" id="svg2" version="1.1" viewBox="0 0 48 48"><metadata id="metadata39"/><defs id="defs4"><linearGradient id="0" x2="0" y1="542.8" y2="507.8" gradientTransform="matrix(1.05233,0,0,1.02761,-72.68,-8.584)" gradientUnits="userSpaceOnUse" xlink:href="#0-6"><stop id="stop7" stop-color="#ff3069"/><stop id="stop9" offset="1" stop-color="#ffa548"/></linearGradient><path id="1" d="m22 3h27v15h-27z"/><linearGradient id="0-6" x2="0" y1="547.44" y2="513.98" gradientUnits="userSpaceOnUse"><stop id="stop4173" stop-color="#197cf1"/><stop id="stop4175" offset="1" stop-color="#20bcfa"/></linearGradient><linearGradient id="linearGradient4251" x2="0" y1="547.44" y2="513.98" gradientUnits="userSpaceOnUse" xlink:href="#0-6"/><linearGradient id="linearGradient4253" x2="0" y1="547.44" y2="513.98" gradientUnits="userSpaceOnUse" xlink:href="#0-6"/><linearGradient id="linearGradient4255" x2="0" y1="547.44" y2="513.98" gradientUnits="userSpaceOnUse" xlink:href="#0-6"/><linearGradient id="linearGradient4257" x2="0" y1="547.44" y2="513.98" gradientUnits="userSpaceOnUse" xlink:href="#0-6"/><linearGradient id="linearGradient4259" x2="0" y1="547.44" y2="513.98" gradientUnits="userSpaceOnUse" xlink:href="#0-6"/><linearGradient id="linearGradient4261" x2="0" y1="547.44" y2="513.98" gradientUnits="userSpaceOnUse" xlink:href="#0-6"/></defs><g id="g4177" transform="translate(-397.78011,-464.65639)"><flowRoot id="flowRoot4179" font-size="10" letter-spacing="0" line-height="125%" text-align="start" transform="translate(389.57,520.8)" word-spacing="0" style="font-size:10px;line-height:125%;font-family:sans-serif;text-align:start;letter-spacing:0;word-spacing:0"><flowRegion id="flowRegion4181"><use id="use4183" width="100%" height="100%" x="0" y="0" xlink:href="#1"/></flowRegion><flowPara id="flowPara4185">Plasm</flowPara></flowRoot><g id="g4187" transform="matrix(1.57636,0,0,1.57636,-222.96,-314.39)"><g id="g4189" transform="matrix(0.65763,0,0,0.65763,163.45,180.5)"><g style="fill:url(#linearGradient4261)" id="g4191" transform="translate(16.014796,-30.423367)"><rect style="fill:url(#linearGradient4251)" id="rect4193" width="46.3" height="34.939" x="334.23" y="513.13" rx="1.644"/><flowRoot style="font-size:10px;line-height:125%;font-family:sans-serif;text-align:start;letter-spacing:0;word-spacing:0;fill:url(#linearGradient4259)" id="flowRoot4195" font-size="10" letter-spacing="0" line-height="125%" text-align="start" transform="matrix(1.52062,0,0,1.52062,386.51,514.7)" word-spacing="0"><flowRegion style="fill:url(#linearGradient4255)" id="flowRegion4197"><use style="fill:url(#linearGradient4253)" id="use4199" width="100%" height="100%" x="0" y="0" xlink:href="#1"/></flowRegion><flowPara style="fill:url(#linearGradient4257)" id="flowPara4201">Plasm</flowPara></flowRoot></g></g><flowRoot id="flowRoot4213" font-size="10" letter-spacing="0" line-height="125%" text-align="start" transform="translate(352.74,519.84)" word-spacing="0" style="font-size:10px;line-height:125%;font-family:sans-serif;text-align:start;letter-spacing:0;word-spacing:0"><flowRegion id="flowRegion4215"><use id="use4217" width="100%" height="100%" x="0" y="0" xlink:href="#1"/></flowRegion><flowPara id="flowPara4219">Plasm</flowPara></flowRoot></g></g><g id="g11" transform="translate(-384.58022,-499.80517)"><flowRoot style="font-size:10px;line-height:125%;font-family:sans-serif;text-align:start;letter-spacing:0;word-spacing:0" id="flowRoot13" font-size="10" letter-spacing="0" line-height="125%" text-align="start" transform="translate(389.57,520.8)" word-spacing="0"><flowRegion id="flowRegion15"><path id="path17" d="m 22,3 27,0 0,15 -27,0 z"/></flowRegion><flowPara id="flowPara19">Plasm</flowPara></flowRoot><g id="g21" transform="matrix(1.03666,0,0,1.03666,38.2,-26.36)"><g style="fill:#fff;fill-opacity:.85199998" id="g25" transform="matrix(1.52062,0,0,1.52062,-204.35,-290.39)"><flowRoot style="font-size:10px;line-height:125%;font-family:sans-serif;text-align:start;letter-spacing:0;word-spacing:0" id="flowRoot27" font-size="10" letter-spacing="0" line-height="125%" text-align="start" transform="translate(389.57,520.8)" word-spacing="0"><flowRegion id="flowRegion29"><path style="fill:#fff;fill-opacity:.85199998" id="path31" d="m 22,3 27,0 0,15 -27,0 z"/></flowRegion><flowPara id="flowPara33">Plasm</flowPara></flowRoot><path id="path35" d="m 16.656,1039.14 0,-2.317 c 0,-3.144 -2.558,-5.703 -5.703,-5.703 -3.145,0 -5.703,2.559 -5.703,5.703 l 0,2.317 c -0.449,0.094 -0.788,0.494 -0.788,0.971 l 0,8.682 c 0,0.547 0.445,0.992 0.992,0.992 l 10.998,0 c 0.547,0 0.992,-0.445 0.992,-0.992 l 0,-8.682 c 0,-0.477 -0.339,-0.876 -0.788,-0.971 m -4.371,7.401 c 0.02,0.109 -0.052,0.195 -0.162,0.195 l -2.315,0 c -0.109,0 -0.182,-0.086 -0.162,-0.195 l 0.369,-1.954 c -0.279,-0.254 -0.454,-0.621 -0.454,-1.028 0,-0.769 0.623,-1.392 1.392,-1.392 0.769,0 1.392,0.623 1.392,1.392 0,0.396 -0.166,0.753 -0.432,1.01 z m 2.387,-7.422 -7.438,0 0,-2.296 c 0,-2.051 1.668,-3.719 3.719,-3.719 2.051,0 3.719,1.668 3.719,3.719 z" transform="matrix(0.81569,0,0,0.81569,360.41,-308.71)"/></g></g></g></svg>