<svg xmlns="http://www.w3.org/2000/svg" xmlns:svg="http://www.w3.org/2000/svg" id="svg2" version="1.1" viewBox="0 0 48 48"><metadata id="metadata32"/><defs id="defs4"><linearGradient id="0" x1="409.57" x2="409.94" y1="542.8" y2="501.23" gradientTransform="matrix(1.09091 0 0 1.20731-398.34-633.16)" gradientUnits="userSpaceOnUse"><stop id="stop7" stop-color="#08f"/><stop id="stop9" offset="1" stop-color="#02c3ff"/></linearGradient><linearGradient id="1" x1="50.933" x2="49.43" y1="24.848" y2="1.037" gradientUnits="userSpaceOnUse"><stop id="stop12" stop-color="#e6f3ff"/><stop id="stop14" offset="1" stop-color="#dcffe7"/></linearGradient><linearGradient id="0-8" x1="409.57" x2="409.94" y1="542.8" y2="501.23" gradientTransform="matrix(1.05233,0,0,1.02761,-72.57,-8.693)" gradientUnits="userSpaceOnUse"><stop id="stop37" stop-color="#ff9300"/><stop id="stop39" offset="1" stop-color="#ffd702"/></linearGradient><linearGradient id="2" x1="131.44" x2="123.9" y1="223.27" y2="103.58" gradientUnits="userSpaceOnUse"><stop id="stop12-4" stop-color="#141414"/><stop id="stop14-4" offset="1" stop-color="#2d2d2f"/></linearGradient></defs><g id="g41" transform="matrix(1.35024,0,0,1.35024,1.9458731,-1364.4575)"><path style="fill:#fff;fill-opacity:.847;stroke-width:1.31700003" id="path43" d="m 63,48.667 -8,0 0,-16 8,0 c 8.836,0 16,-7.164 16,-16 0,-8.836 -7.164,-16 -16,-16 -8.837,0 -16,7.164 -16,16 l 0,8 -16,0 0,-8 c 0,-8.836 -7.164,-16 -16,-16 -8.836,0 -16,7.164 -16,16 0,8.836 7.164,16 16,16 l 8,0 0,16 -8,0 c -8.836,0 -16,7.164 -16,16 0,8.836 7.164,16 16,16 8.837,0 16,-7.164 16,-16 l 0,-8 16,0 0,7.98 c 0,0.008 -1e-4,0.014 -1e-4,0.02 0,8.836 7.164,16 16,16 8.836,0 16,-7.164 16,-16 0,-8.836 -7.163,-15.998 -15.999,-16 m 0,-40 c 4.418,0 8,3.582 8,8 0,4.418 -3.582,8 -8,8 l -8,0 0,-8 c 0,-4.418 3.582,-8 8,-8 m -56,8 c 0,-4.418 3.582,-8 8,-8 4.418,0 8,3.582 8,8 l 0,8 -8,0 c -4.418,0 -8,-3.583 -8,-8 m 8,56 c -4.418,0 -8,-3.582 -8,-8 0,-4.418 3.582,-8 8,-8 l 8,0 0,8 c 0,4.418 -3.582,8 -8,8 m 16,-24 0,-16 16,0 0,16 -16,0 m 32,24 c -4.418,0 -8,-3.582 -8,-8 l 0,-8 7.999,0 c 4.418,0 8,3.582 8,8 0,4.418 -3.581,8 -7.999,8" transform="matrix(0.3,0,0,0.3,4.327,1014.32)"/><g id="g45" transform="matrix(0.76768,0,0,0.87003,-258.02,564.67)"><rect style="fill:url(#0-8)" id="rect47" width="46.3" height="34.939" x="334.23" y="513.13" rx="1.644"/><flowRoot style="font-size:10px;line-height:125%;font-family:sans-serif;text-align:start;letter-spacing:0;word-spacing:0" id="flowRoot49" font-size="10" letter-spacing="0" line-height="125%" text-align="start" transform="matrix(1.71835,0,0,1.71835,390.33,513.78)" word-spacing="0"><flowRegion id="flowRegion51"><path id="path53" d="m 22,3 27,0 0,15 -27,0 z"/></flowRegion><flowPara id="flowPara55">Plasm</flowPara></flowRoot></g><g style="fill-rule:evenodd" id="g57"><path style="opacity:.9;fill:#ffff94;fill-opacity:.49200039" id="path59" d="m 33.643,1026.34 c 0,6.453 -3.402,12.1 -8.478,15.172 l -17.727,-0.031 c -5.05,-3.082 -8.427,-8.709 -8.427,-15.14 0,-6.491 3.442,-12.164 8.569,-15.226 l 17.538,0 c 5.102,3.069 8.525,8.754 8.525,15.226"/><circle style="opacity:.9;fill:#ffffa9;fill-opacity:.51200005" id="circle61" cx="16.327" cy="1026.31" r="12.855"/><circle style="opacity:.9;fill:#ffff9b" id="circle63" cx="16.327" cy="1026.31" r="8"/></g><path style="fill:url(#2)" id="path65" d="m 154.62,140.33 -26.45,-0.039 0,-32.04 c 0,-7.911 -5.363,-14.348 -12.5,-14.348 -7.138,0 -12.5,6.437 -12.5,14.348 l 0,48.52 c -3,-3.409 -6.196,-5.447 -10.211,-5.447 -2.217,0 -4.443,0.643 -6.396,1.861 -6.156,3.861 -8.385,12.313 -5.03,19.288 5.485,10.915 23.475,46.737 24.697,48.569 4.064,6.153 10.23,9.748 16.928,9.748 l 35.33,0 c 13.545,0 20.68,-7.112 20.68,-19.284 l 0,-44.628 c 0,-0.226 0.305,-0.448 0.291,-0.67 0.017,-0.349 -0.013,-0.708 -0.013,-1.079 0,-13.672 -11.162,-24.796 -24.829,-24.796" transform="matrix(0.14732,0,0,0.14732,-0.401,1011.5)"/></g></svg>