<svg xmlns="http://www.w3.org/2000/svg" xmlns:svg="http://www.w3.org/2000/svg" xmlns:xlink="http://www.w3.org/1999/xlink" id="svg2" version="1.1" viewBox="0 0 48 48"><metadata id="metadata22"/><defs id="defs4"><linearGradient id="0" x2="0" y1="518.08" y2="545.15" gradientUnits="userSpaceOnUse" xlink:href="#0-7"><stop id="stop7" stop-color="#faf7f7"/><stop id="stop9" offset="1" stop-color="#d4d4d4"/></linearGradient><linearGradient id="1" x1="403.44" x2="402.47" y1="545.15" y2="518.08" gradientUnits="userSpaceOnUse"><stop id="stop12" stop-color="#d3d3d3"/><stop id="stop14" offset="1" stop-color="#fcf9f9"/></linearGradient><linearGradient id="0-7" x1="18.6" x2="20.03" y1="261.26" y2="155.59" gradientTransform="matrix(0.43355,0,0,0.43481,-57.018323,-61.893693)" gradientUnits="userSpaceOnUse"><stop id="stop11" stop-color="#2a2c2f"/><stop id="stop13" offset="1" stop-color="#424649"/></linearGradient><linearGradient id="linearGradient4176-8" x1="403.44" x2="402.47" y1="545.15" y2="518.08" gradientTransform="matrix(1.6013,0,0,1.6013,-657.62384,-827.27185)" gradientUnits="userSpaceOnUse" xlink:href="#0-7"/><linearGradient id="linearGradient4184-6" x1="403.44" x2="402.47" y1="545.15" y2="518.08" gradientTransform="matrix(1.6013,0,0,1.6013,-657.62384,-827.27185)" gradientUnits="userSpaceOnUse" xlink:href="#0-7"/><linearGradient id="linearGradient4174-6" x1="403.705" x2="403.935" y1="545.263" y2="531.068" gradientTransform="matrix(1.6959,0,0,1.69067,-704.13384,-884.38185)" gradientUnits="userSpaceOnUse" xlink:href="#1"/></defs><g id="g4234" transform="translate(40.271187,-0.20339012)"><circle style="fill:url(#linearGradient4176-8);fill-opacity:1;stroke:url(#linearGradient4184-6);stroke-width:2.44038129" id="circle16-9" cx="-16.271" cy="24.203" r="22.78"/><path style="fill:url(#linearGradient4174-6);fill-opacity:1;stroke:none;stroke-opacity:.8" id="path18-3" d="m -10.459868,28.326343 c -1.388942,0 -2.613382,0.662743 -3.408759,1.675454 l -7.419563,-3.798935 c 0.09667,-0.363494 0.167894,-0.737132 0.167894,-1.131058 0,-0.429431 -0.0831,-0.833501 -0.19842,-1.227427 l 7.38734,-3.780338 c 0.795378,1.06005 2.052039,1.751534 3.478291,1.751534 2.4166584,0 4.3703354,-1.956105 4.3703354,-4.372072 0,-2.414277 -1.955373,-4.372073 -4.3703354,-4.372073 -2.411569,0 -4.366942,1.957796 -4.366942,4.372073 0,0.395616 0.06953,0.770945 0.167894,1.134439 L -22.07,22.376876 c -0.800464,-1.014402 -2.028296,-1.678836 -3.425718,-1.678836 -2.413265,0 -4.366942,1.957796 -4.366942,4.373764 0,2.415967 1.953677,4.372072 4.366942,4.372072 1.427948,0 2.682914,-0.694865 3.481683,-1.754915 l 7.383949,3.780338 c -0.115322,0.392235 -0.200117,0.799687 -0.200117,1.230808 0,2.415967 1.957069,4.372072 4.366943,4.372072 2.4166574,0 4.3703344,-1.957796 4.3703344,-4.372072 0,-2.417659 -1.955372,-4.373764 -4.3703344,-4.373764"/></g></svg>