<svg xmlns="http://www.w3.org/2000/svg" xmlns:svg="http://www.w3.org/2000/svg" xmlns:xlink="http://www.w3.org/1999/xlink" id="svg2" version="1.1" viewBox="0 0 48 48"><metadata id="metadata49"/><defs id="defs4"><linearGradient id="5" x1="408.24" x2="408.32" y1="519.36" y2="528.58" gradientUnits="userSpaceOnUse"><stop id="stop7" stop-color="#828282"/><stop id="stop9" offset="1" stop-color="#bfbfbf"/></linearGradient><linearGradient id="4" x1="408.78" x2="408.86" y1="527.73" y2="509.27" gradientUnits="userSpaceOnUse"><stop id="stop12" stop-color="#cdced2"/><stop id="stop14" offset="1" stop-color="#f1f1f1"/></linearGradient><linearGradient id="6" x1="408.34" x2="408.22" y1="527.3" y2="519.71" gradientUnits="userSpaceOnUse" xlink:href="#1"/><linearGradient id="3" x2="0" y1="539.83" y2="506.15" gradientUnits="userSpaceOnUse" xlink:href="#1"/><linearGradient id="1"><stop id="stop19" stop-color="#141414"/><stop id="stop21" offset="1" stop-color="#2d2d2f"/></linearGradient><linearGradient id="0" x1="410.47" x2="410.63" y1="531.06" y2="503.1" gradientUnits="userSpaceOnUse"><stop id="stop24" stop-color="#c0c1c4"/><stop id="stop26" offset="1" stop-color="#eaeaea"/></linearGradient><linearGradient id="2" x2="0" y1="-505.72" y2="-543.7" gradientUnits="userSpaceOnUse" xlink:href="#1"/><linearGradient id="6-4" x1="408.34" x2="408.22" y1="527.3" y2="519.71" gradientTransform="matrix(0.92308,0,0,0.92308,-295.67293,-458.89507)" gradientUnits="userSpaceOnUse" xlink:href="#4-3"/><linearGradient id="5-7" x1="408.24" x2="408.32" y1="519.36" y2="528.58" gradientTransform="matrix(0.92308,0,0,0.92308,-295.67293,-458.89507)" gradientUnits="userSpaceOnUse"><stop id="stop7-4" stop-color="#828282"/><stop id="stop9-6" offset="1" stop-color="#bfbfbf"/></linearGradient><linearGradient id="4-3" x1="408.78" x2="408.86" y1="527.73" y2="509.27" gradientTransform="matrix(0.92308,0,0,0.92308,-295.67293,-458.89507)" gradientUnits="userSpaceOnUse" spreadMethod="pad"><stop id="stop12-2" stop-color="#cdced2"/><stop id="stop14-7" offset="1" stop-color="#f1f1f1"/></linearGradient><linearGradient id="3-6" x2="0" y1="539.83" y2="506.15" gradientTransform="matrix(1.07935,0,0,1.07935,-359.14493,-540.74907)" gradientUnits="userSpaceOnUse" xlink:href="#4-3"/><linearGradient id="0-3" x1="410.47" x2="410.63" y1="531.06" y2="503.1" gradientTransform="translate(-327.11493,-499.24507)" gradientUnits="userSpaceOnUse" spreadMethod="pad"><stop id="stop24-8" stop-color="#c0c1c4"/><stop id="stop26-1" offset="1" stop-color="#eaeaea"/></linearGradient><linearGradient id="2-7" x2="0" y1="-505.72" y2="-543.7" gradientTransform="translate(-327.09893,499.18307)" gradientUnits="userSpaceOnUse" xlink:href="#0-3"/><linearGradient id="linearGradient4273" x1="81.637" x2="81.17" y1="45.613" y2="3.762" gradientUnits="userSpaceOnUse" xlink:href="#1"/><linearGradient id="linearGradient4281" x1="81.552" x2="80.961" y1="44.465" y2="5.777" gradientUnits="userSpaceOnUse" xlink:href="#1"/><linearGradient id="linearGradient4283" x1="408.24" x2="408.32" y1="519.36" y2="528.58" gradientTransform="matrix(0.92308,0,0,0.92308,-295.67293,-458.89507)" gradientUnits="userSpaceOnUse" xlink:href="#1"/></defs><g id="g4285" transform="translate(-57.475075,-0.61542988)"><rect id="rect31-8" width="48" height="41.901" x="57.475" y="3.665" rx="2.898" style="fill:url(#linearGradient4273);fill-opacity:1;stroke-width:1.079"/><circle id="circle33-6" cx="81.471" cy="-24.617" r="16.72" transform="scale(1,-1)" style="fill:url(#2-7);fill-opacity:1"/><circle id="circle37-1" cx="81.467" cy="24.614" r="16" style="fill:url(#3-6);fill-opacity:1"/><path id="path41-1" d="m 93.396068,23.284995 c -0.03785,-0.336924 -0.431078,-0.590771 -0.771695,-0.590771 -1.099388,0 -2.076007,-0.646156 -2.484931,-1.644006 -0.418156,-1.022772 -0.148616,-2.215392 0.671079,-2.967702 0.257539,-0.236308 0.288924,-0.630463 0.07292,-0.904618 -0.563079,-0.714464 -1.202773,-1.36062 -1.901545,-1.920007 -0.273231,-0.219693 -0.674771,-0.189231 -0.912003,0.07385 -0.715387,0.792002 -2.000314,1.086465 -2.992625,0.672002 -1.032927,-0.434771 -1.684621,-1.481543 -1.620929,-2.605854 0.02123,-0.352617 -0.237231,-0.660003 -0.588925,-0.700618 -0.89631,-0.103385 -1.800929,-0.107077 -2.700009,-0.0083 -0.348001,0.03877 -0.60554,0.337847 -0.594463,0.686771 0.03877,1.113235 -0.62031,2.141546 -1.643083,2.560624 -0.981234,0.400617 -2.25693,0.108924 -2.970471,-0.676617 -0.236308,-0.258463 -0.630464,-0.290771 -0.905541,-0.07569 -0.71908,0.564002 -1.373543,1.210158 -1.941238,1.919083 -0.221539,0.276001 -0.189231,0.674772 0.072,0.912003 0.835387,0.756003 1.104926,1.959699 0.671079,2.994472 -0.414463,0.986772 -1.438159,1.621851 -2.611394,1.621851 -0.380309,-0.012 -0.651694,0.242771 -0.693233,0.588926 -0.105231,0.901849 -0.107077,1.820313 -0.0046,2.729547 0.03785,0.33877 0.443078,0.589848 0.786464,0.589848 1.044927,-0.02677 2.048315,0.62031 2.469239,1.644006 0.419078,1.022772 0.149539,2.215392 -0.671079,2.967702 -0.256616,0.235385 -0.288924,0.630464 -0.07292,0.904618 0.55754,0.709849 1.197234,1.356005 1.898775,1.92093 0.275078,0.221539 0.674772,0.190154 0.912926,-0.072 0.718157,-0.793849 2.003084,-1.088312 2.991703,-0.672926 1.035695,0.432925 1.68739,1.479697 1.623697,2.604932 -0.02031,0.35354 0.238155,0.660925 0.588925,0.700618 0.458771,0.05354 0.920311,0.08031 1.382774,0.08031 0.439386,0 0.877849,-0.024 1.317235,-0.07292 0.348001,-0.03877 0.605541,-0.337847 0.594464,-0.687694 -0.04062,-1.112312 0.62031,-2.140623 1.642159,-2.558778 0.987696,-0.403386 2.257854,-0.108 2.972318,0.676618 0.237231,0.258462 0.62954,0.288924 0.905541,0.07569 0.718156,-0.563079 1.370774,-1.208312 1.941237,-1.919083 0.22154,-0.275078 0.190155,-0.674772 -0.072,-0.912003 -0.835387,-0.756003 -1.10585,-1.959699 -0.672002,-2.993549 0.408001,-0.972926 1.393851,-1.626467 2.455393,-1.626467 l 0.148616,0.0028 c 0.344309,0.02769 0.660925,-0.237232 0.702464,-0.588002 0.106154,-0.902773 0.107077,-1.820314 0.0046,-2.729548 z m -11.905886,5.360326 c -2.207084,0 -4.002475,-1.795391 -4.002475,-4.002475 0,-2.207084 1.795391,-4.002475 4.002475,-4.002475 2.207084,0 4.002475,1.795391 4.002475,4.002475 0,2.207084 -1.795391,4.002475 -4.002475,4.002475" style="fill:url(#linearGradient4281);fill-opacity:1;stroke-width:1.31700003"/><circle id="circle43-0" cx="81.47" cy="24.614" r="4.615" style="fill:url(#linearGradient4283);fill-opacity:1"/><circle id="circle45-3" cx="81.47" cy="24.614" r="3.231" style="fill:url(#6-4);fill-opacity:1"/></g></svg>