<svg xmlns="http://www.w3.org/2000/svg" xmlns:svg="http://www.w3.org/2000/svg" xmlns:xlink="http://www.w3.org/1999/xlink" id="svg2" version="1.1" viewBox="0 0 48 48"><metadata id="metadata27"/><defs id="defs4"><linearGradient id="0-7" x1="18.6" x2="20.03" y1="261.26" y2="155.59" gradientTransform="matrix(0.43355,0,0,0.43481,-57.018323,-61.893693)" gradientUnits="userSpaceOnUse"><stop id="stop11" stop-color="#2a2c2f"/><stop id="stop13" offset="1" stop-color="#424649"/></linearGradient><linearGradient id="0-3" x1="355.73" x2="355.69" y1="547" y2="505.33" gradientTransform="matrix(0.9746,0,0,0.9746,-366.26168,-469.9806)" gradientUnits="userSpaceOnUse"><stop id="stop32" stop-color="#1074f5"/><stop id="stop34" offset="1" stop-color="#02befd"/></linearGradient><linearGradient id="linearGradient4194-1" x1="23.308" x2="23.231" y1="46.55" y2="37.245" gradientTransform="translate(20.743552,39.050309)" gradientUnits="userSpaceOnUse" xlink:href="#0-3"/><linearGradient id="linearGradient4173-0" x1="165.356" x2="164.467" y1="51.109" y2="-56.043" gradientTransform="matrix(0.44037,0,0,0.44037,-28.486447,63.120308)" gradientUnits="userSpaceOnUse" xlink:href="#0-7"/></defs><g id="g4180" transform="translate(-20.745763,-39.050847)"><path style="fill:url(#linearGradient4173-0);fill-opacity:1" id="path13-4" d="m 43.562489,39.051886 c -3.052645,0.03391 -6.334723,0.312222 -8.571362,2.408824 -3.425638,3.211618 -2.993195,5.432845 -3.329637,9.828177 -0.686978,8.972539 -0.420994,21.269871 1.403459,30.103694 0.535049,2.591577 2.979543,4.416911 5.572001,4.914088 1.990032,0.383122 4.047882,0.673326 6.108813,0.743345 2.060932,-0.07002 4.118781,-0.360223 6.108813,-0.743345 2.592898,-0.498939 5.036952,-2.322511 5.572001,-4.914088 1.824453,-8.833823 2.090437,-21.131155 1.40346,-30.103694 -0.336443,-4.395332 0.096,-6.61876 -3.329638,-9.828177 -2.236639,-2.096602 -5.518717,-2.374915 -8.571362,-2.408824 -0.398975,-4.4e-4 -0.794867,-4.4e-5 -1.183274,0 -0.388406,-4.4e-5 -0.784299,-4.4e-4 -1.183274,0"/><path style="fill:url(#linearGradient4194-1);fill-opacity:1" id="ellipse17-1" d="m 42.770897,76.573746 a 0.53954132,0.53788333 0 0 0 -0.539063,0.539062 0.53954132,0.53788333 0 0 0 0.539063,0.537109 0.53954132,0.53788333 0 0 0 0.541015,-0.537109 0.53954132,0.53788333 0 0 0 -0.541015,-0.539062 z m 3.058594,0 -1.023438,1.019531 1.574219,1.570312 -1.63086,1.847657 1.080079,0.941406 2.517578,-2.869141 -2.517578,-2.509765 z m -3.777344,2.509765 a 0.89923554,0.89647222 0 0 0 -0.898438,0.896485 0.89923554,0.89647222 0 0 0 0.898438,0.896484 0.89923554,0.89647222 0 0 0 0.898437,-0.896484 0.89923554,0.89647222 0 0 0 -0.898437,-0.896485 z m 1.61914,2.511719 a 1.0790826,1.0757667 0 0 0 -1.080078,1.074219 1.0790826,1.0757667 0 0 0 1.080078,1.076171 1.0790826,1.0757667 0 0 0 1.078125,-1.076171 1.0790826,1.0757667 0 0 0 -1.078125,-1.074219 z"/></g></svg>