<svg xmlns="http://www.w3.org/2000/svg" xmlns:xlink="http://www.w3.org/1999/xlink" viewBox="0 0 48 48"><defs><linearGradient id="5" x2="0" y1="515.9" y2="510.72" gradientUnits="userSpaceOnUse" xlink:href="#2"/><linearGradient id="4" x1="523.1" x2="522.76" y1="-403.18" y2="-425.09" gradientUnits="userSpaceOnUse"><stop stop-color="#ac92ec"/><stop offset=".202" stop-color="#64a9ff"/><stop offset=".323" stop-color="#4cdbb7"/><stop offset=".534" stop-color="#aee672"/><stop offset=".763" stop-color="#ffce53"/><stop offset=".899" stop-color="#fb6e51"/><stop offset="1" stop-color="#ed5565"/></linearGradient><linearGradient id="6" x1="401.35" x2="401.01" y1="543.99" y2="522.08" gradientUnits="userSpaceOnUse" xlink:href="#2"/><linearGradient id="3" x1="407.2" x2="424.07" y1="515.76" y2="532.63" gradientUnits="userSpaceOnUse" xlink:href="#2"/><linearGradient id="1" x1="415.32" x2="414.58" y1="537.14" y2="510.43" gradientUnits="userSpaceOnUse" xlink:href="#2"/><linearGradient id="0" x1="391.57" x2="390.88" y1="531.8" y2="507.67" gradientTransform="matrix(1 0 0 1.23287-8-109.15)" gradientUnits="userSpaceOnUse"><stop stop-color="#d3d3d3"/><stop offset="1" stop-color="#fcf9f9"/></linearGradient><linearGradient id="2"><stop stop-color="#222c35"/><stop offset="1" stop-color="#545e67"/></linearGradient></defs><g transform="matrix(.99999 0 0 .99999-376.56-507.79)"><rect width="48" height="29.589" x="376.57" y="516.9" fill="url(#0)" stroke-width=".923" rx="1.385"/><path fill="url(#1)" d="m401.27124 523.8253a13.999973 13.999973 0 0 1 13.99997 -13.99997 13.999973 13.999973 0 0 1 13.99997 13.99997 13.999973 13.999973 0 0 1 -13.99997 13.99998 13.999973 13.999973 0 0 1 -13.99997 -13.99998" transform="matrix(1.20132 0 0 1.20132-96.84-97.48)"/><circle cx="415.27" cy="523.83" r="11" fill="url(#3)" transform="matrix(1.20132 0 0 1.20132-96.84-97.48)"/><circle cx="523.83" cy="-415.27" r="10" fill="url(#4)" transform="matrix(0 1.20132-1.20132 0-96.84-97.48)"/><circle cx="372.71" cy="513.31" r="2.591" fill="url(#5)" fill-rule="evenodd" transform="matrix(.92308 0 0 .92308 37.906 48.19)"/><circle cx="402.07" cy="531.9" r="10" fill="url(#6)"/></g></svg>