<svg xmlns="http://www.w3.org/2000/svg" viewBox="0 0 22 22"><g><path fill="#1d99f3" d="m566.72 589.12l3-4 3 4z" transform="translate(-553.72-583.12)"/><g fill="#f2f2f2"><path d="m13 8v12h1 5a3.5 3.5 0 0 0 3.5 -3.5 3.5 3.5 0 0 0 -2.433594 -3.330078 3 3 0 0 0 .933594 -2.169922 3 3 0 0 0 -3 -3h-4-1m1 1h4a2 2 0 0 1 2 2 2 2 0 0 1 -2 2h-4v-4m0 5h5a2.5 2.5 0 0 1 2.5 2.5 2.5 2.5 0 0 1 -2.5 2.5h-5v-5" transform="translate(-553.72-583.12) translate(552.72 582.12)"/><path fill-rule="evenodd" d="m558.55 590.12l-4.174 12h1.01l1.496-4h5.207l1.49 4h1.145l-4.23-12h-1.941m.939 1.029l2.225 5.971h-4.459l2.234-5.971" color="#000" color-interpolation="sRGB" color-interpolation-filters="linearRGB" color-rendering="auto" image-rendering="auto" isolation="auto" mix-blend-mode="normal" shape-rendering="auto" solid-color="#000000" solid-opacity="1" transform="translate(-553.72-583.12)" white-space="normal"/></g></g></svg>