<svg xmlns="http://www.w3.org/2000/svg" xmlns:xlink="http://www.w3.org/1999/xlink" viewBox="0 0 32 32"><defs><linearGradient id="3" x1="89.07" x2="83.5" y1="144.86" y2="-26.16" gradientUnits="userSpaceOnUse"><stop stop-color="#289bf7"/><stop offset="1" stop-color="#4caaf4"/></linearGradient><linearGradient id="4" x1="17.923" x2="17.958" y1="23.875" y2="11.992" gradientUnits="userSpaceOnUse" xlink:href="#1"/><linearGradient id="2" x1="-701.19" x2="-704.05" y1="647.77" y2="354.29" gradientUnits="userSpaceOnUse"><stop stop-color="#9fd2fa"/><stop offset="1" stop-color="#cde8fe"/></linearGradient><linearGradient id="0" x1="59.12" x2="59.15" y1="-13.295" y2="-37.783" gradientTransform="matrix(4.17478 0 0 4.16765-1069.7 447.73)" gradientUnits="userSpaceOnUse" xlink:href="#1"/><linearGradient id="1"><stop stop-color="#289bf7"/><stop offset="1" stop-color="#71b9f1"/></linearGradient></defs><g fill="#60aae5"><g stroke="none" transform="translate(-384.57-515.8) matrix(.10147 0 0 .10147 395.29 527.66)"><path fill="url(#0)" d="m-884.1 294.78c-4.626 0-8.349 3.718-8.349 8.335v161.41l468.19 1v-121.2c0-4.618-3.724-8.335-8.35-8.335h-272.65c-8.51.751-9.607-.377-13.812-5.981-5.964-7.968-14.969-21.443-20.84-29.21-4.712-6.805-5.477-6.02-13.292-6.02z" color="#000" transform="matrix(.54993 0 0 .54993 414.09-220.26)"/><rect width="463.85" height="295.13" x="-890.28" y="356.85" fill="url(#2)" stroke="url(#2)" stroke-width="2.378" rx="9.63" transform="matrix(.54993 0 0 .54993 414.09-220.26)"/><rect width="255.08" height="162.3" x="-75.5" y="-24.02" fill="none" stroke="url(#3)" stroke-linecap="round" stroke-linejoin="round" stroke-width="2.956" rx="5.296"/><path fill="url(#4)" d="m19.852 12.309c-2.496 0-2.965 3.555-1.561 3.555 1.404 0 4.057-3.555 1.561-3.555m-3.982.443c-1.405.182-.91 2.626-.162 2.672.748.046 1.567-2.854.162-2.672m-2.354.961c-.062.007-.129.024-.199.053-1.129.466-.17 2.389.463 2.26.594-.121.66-2.411-.264-2.313m-1.754 1.506c-.098-.003-.205.029-.318.107-.904.625.304 2.132.836 1.898.465-.205.17-1.983-.518-2.01m5.162 1.154c-1.938-.033-4.494.938-4.93 2.891-.472 2.113 1.942 5.04 4.463 5.04 1.24 0 2.67-1.121 2.938-2.539.204-1.082-2.404-.647-2.311.068.112.858-.629 1.282-1.355.729-2.312-1.76 3.829-2.64 3.424-5.04-.126-.749-1.066-1.129-2.229-1.148" transform="matrix(9.855 0 0 9.855-109.58-121.3)"/></g></g></svg>