<svg xmlns="http://www.w3.org/2000/svg" viewBox="0 0 16 16"><g fill="#4d4d4d" stroke="#4d4d4d"><path d="m428.84 512.33c-2.087-3.587-4.919-6.426-8.495-8.519-3.577-2.093-7.482-3.14-11.717-3.14-4.235 0-8.141 1.047-11.717 3.14-3.577 2.093-6.408 4.933-8.496 8.519-2.087 3.587-3.131 7.503-3.131 11.75 0 5.101 1.484 9.688 4.453 13.762 2.969 4.074 6.803 6.893 11.504 8.458.547.102.952.03 1.216-.213.263-.244.395-.549.395-.914 0-.061-.005-.609-.015-1.646-.001-1.037-.015-1.941-.015-2.712l-.699.121c-.446.082-1.01.117-1.687.107-.679-.009-1.383-.081-2.112-.213-.73-.132-1.408-.436-2.037-.914-.628-.478-1.074-1.103-1.337-1.875l-.304-.701c-.203-.467-.522-.985-.957-1.554-.436-.569-.876-.955-1.322-1.158l-.213-.152c-.142-.102-.273-.224-.395-.366-.122-.142-.213-.284-.273-.427-.061-.142-.001-.259.152-.351.162-.092.456-.137.882-.137l.608.091c.405.081.907.325 1.505.731.598.406 1.089.935 1.474 1.584.466.834 1.028 1.468 1.687 1.905.658.437 1.322.655 1.991.655.669 0 1.246-.051 1.733-.152.486-.101.942-.254 1.368-.457.182-1.362.679-2.408 1.489-3.14-1.155-.122-2.193-.305-3.116-.549-.922-.244-1.874-.64-2.857-1.189-.983-.548-1.799-1.229-2.447-2.042-.648-.813-1.18-1.88-1.596-3.201-.415-1.321-.623-2.845-.623-4.572 0-2.459.801-4.552 2.401-6.279-.75-1.849-.679-3.921.213-6.218.588-.183 1.459-.046 2.614.412 1.155.457 2 .849 2.538 1.174.537.325.968.6 1.292.823 1.885-.528 3.83-.792 5.836-.792 2.01 0 3.952.264 5.837.792l1.155-.731c.79-.488 1.722-.935 2.796-1.341 1.074-.406 1.895-.518 2.463-.335.912 2.296.993 4.369.243 6.218 1.601 1.727 2.401 3.82 2.401 6.279 0 1.727-.208 3.256-.623 4.587-.416 1.331-.952 2.398-1.611 3.201-.659.803-1.48 1.479-2.462 2.027-.983.549-1.935.945-2.857 1.189-.922.244-1.96.427-3.116.549 1.054.914 1.58 2.357 1.58 4.328v6.431c0 .365.127.67.38.914.253.244.653.315 1.201.213 4.701-1.565 8.536-4.384 11.505-8.458 2.969-4.074 4.453-8.661 4.453-13.762-.0001-4.246-1.045-8.162-3.132-11.749z" transform="matrix(.25811 0 0 .25812-97.47-127.13)"/></g></svg>