<svg xmlns="http://www.w3.org/2000/svg" xmlns:svg="http://www.w3.org/2000/svg" xmlns:xlink="http://www.w3.org/1999/xlink" id="svg2" version="1.1" viewBox="0 0 32 32"><metadata id="metadata37"/><defs id="defs4"><linearGradient id="3" x1="-86.21" x2="-84.65" y1="428.69" y2="285.59" gradientUnits="userSpaceOnUse" xlink:href="#1"/><linearGradient id="4" x1="-591.02" x2="-601.15" y1="663.95" y2="352.98" gradientUnits="userSpaceOnUse"><stop id="stop8" stop-color="#289bf7"/><stop id="stop10" offset="1" stop-color="#4caaf4"/></linearGradient><linearGradient id="2" x1="-701.19" x2="-704.05" y1="647.77" y2="354.29" gradientUnits="userSpaceOnUse"><stop id="stop13" stop-color="#9fd2fa"/><stop id="stop15" offset="1" stop-color="#cde8fe"/></linearGradient><linearGradient id="0" x1="59.12" x2="59.15" y1="-13.295" y2="-37.783" gradientTransform="matrix(4.17478 0 0 4.16765-1069.7 447.73)" gradientUnits="userSpaceOnUse" xlink:href="#1"/><linearGradient id="1"><stop id="stop19" stop-color="#289bf7"/><stop id="stop21" offset="1" stop-color="#71b9f1"/></linearGradient><linearGradient id="linearGradient4168" x1="44.894" x2="44.543" y1="46.856" y2="25.432" gradientTransform="matrix(0.54545455,0,0,0.54545455,-7.6521438,-1.520066)" gradientUnits="userSpaceOnUse" xlink:href="#1"/></defs><g id="g23" transform="translate(-384.57-515.8)"><g id="g25" transform="matrix(.0558 0 0 .0558 437.31 505.35)"><path id="path27" fill="url(#0)" d="m-884.1 294.78c-4.626 0-8.349 3.718-8.349 8.335v161.41l468.19 1v-121.2c0-4.618-3.724-8.335-8.35-8.335h-272.65c-8.51.751-9.607-.377-13.812-5.981-5.964-7.968-14.969-21.443-20.84-29.21-4.712-6.805-5.477-6.02-13.292-6.02z" color="#000"/><rect id="rect29" width="463.85" height="295.13" x="-890.28" y="356.85" fill="url(#2)" stroke="url(#2)" stroke-width="2.378" rx="9.63"/><rect id="rect31" width="463.85" height="295.13" x="-890.28" y="356.85" fill="none" stroke="url(#4)" stroke-linecap="round" stroke-linejoin="round" stroke-width="5.376" rx="9.63"/></g></g><path style="fill:url(#linearGradient4168);fill-opacity:1;stroke:none;stroke-width:.60000002;stroke-linecap:round;stroke-linejoin:round;stroke-miterlimit:4;stroke-dasharray:none;stroke-opacity:.8048782" id="path4276-3" d="m 20.1325,17.517751 c -0.77025,-2.1495 -2.40375,-4.08 -4.1325,-5.544751 -1.72875,1.464751 -3.3615,3.395251 -4.1325,5.544751 -0.47625,1.329 -0.5235,2.772 0.14775,4.047749 0.77175,1.466251 2.328,2.4075 3.98475,2.4075 1.65675,0 3.213,-0.941249 3.98475,-2.4075 0.67125,-1.275749 0.624,-2.718 0.14775,-4.047749 z"/></svg>