<svg xmlns="http://www.w3.org/2000/svg" xmlns:xlink="http://www.w3.org/1999/xlink" viewBox="0 0 32 32"><defs><linearGradient id="3" x1="404.33" x2="403.76" y1="542.4" y2="525.05" gradientUnits="userSpaceOnUse"><stop stop-color="#289bf7"/><stop offset="1" stop-color="#4caaf4"/></linearGradient><linearGradient id="4" x1="398.65" x2="398.07" y1="539.62" y2="527.91" gradientUnits="userSpaceOnUse" xlink:href="#1"/><linearGradient id="2" x1="-701.19" x2="-704.05" y1="647.77" y2="354.29" gradientUnits="userSpaceOnUse"><stop stop-color="#9fd2fa"/><stop offset="1" stop-color="#cde8fe"/></linearGradient><linearGradient id="0" x1="59.12" x2="59.15" y1="-13.295" y2="-37.783" gradientTransform="matrix(4.17478 0 0 4.16765-1069.7 447.73)" gradientUnits="userSpaceOnUse" xlink:href="#1"/><linearGradient id="1"><stop stop-color="#289bf7"/><stop offset="1" stop-color="#71b9f1"/></linearGradient></defs><g><g transform="translate(-384.57-515.8) translate(0-.042)"><path fill="url(#0)" d="m-884.1 294.78c-4.626 0-8.349 3.718-8.349 8.335v161.41l468.19 1v-121.2c0-4.618-3.724-8.335-8.35-8.335h-272.65c-8.51.751-9.607-.377-13.812-5.981-5.964-7.968-14.969-21.443-20.84-29.21-4.712-6.805-5.477-6.02-13.292-6.02z" color="#000" transform="matrix(.0558 0 0 .0558 437.31 505.35)"/><rect width="463.85" height="295.13" x="-890.28" y="356.85" fill="url(#2)" stroke="url(#2)" stroke-width="2.378" rx="9.63" transform="matrix(.0558 0 0 .0558 437.31 505.35)"/><rect width="25.884" height="16.469" x="387.63" y="525.26" fill="none" stroke="url(#3)" stroke-linecap="round" stroke-linejoin="round" stroke-width=".3" rx=".537"/><path fill="url(#4)" stroke="url(#4)" stroke-width=".26" d="m405.83 530.77c-.543-.934-1.281-1.673-2.212-2.218-.931-.545-1.948-.817-3.051-.817-1.103 0-2.12.273-3.051.817-.931.545-1.668 1.284-2.212 2.218-.543.934-.815 1.953-.815 3.059 0 1.328.386 2.522 1.159 3.583.773 1.061 1.771 1.795 2.995 2.202.142.027.248.008.317-.055.069-.063.103-.143.103-.238 0-.016-.0001-.159-.004-.428-.003-.27-.004-.505-.004-.706l-.182.032c-.116.021-.262.03-.439.028-.177-.002-.36-.021-.55-.056-.19-.034-.367-.114-.53-.238-.163-.124-.28-.287-.348-.488l-.079-.183c-.053-.122-.136-.257-.249-.405-.113-.148-.228-.249-.344-.302l-.055-.04c-.037-.027-.071-.058-.103-.095-.032-.037-.055-.074-.071-.111-.016-.037-.003-.067.039-.091.042-.024.119-.035.23-.035l.158.024c.105.021.236.085.392.19.156.106.284.243.384.412.121.217.268.382.439.496.171.114.344.171.518.171.174 0 .324-.013.451-.04.127-.026.245-.066.356-.119.048-.355.177-.627.388-.817-.301-.032-.571-.08-.811-.143-.24-.063-.488-.167-.744-.31-.256-.143-.468-.32-.637-.532-.169-.212-.307-.489-.415-.833-.108-.344-.162-.741-.162-1.19 0-.64.208-1.185.625-1.635-.195-.481-.177-1.021.055-1.619.153-.048.38-.012.681.107.301.119.521.221.661.306.14.085.252.156.336.214.491-.138.997-.206 1.519-.206.522 0 1.029.069 1.52.206l.301-.19c.206-.127.448-.243.728-.349.28-.106.493-.135.641-.087.237.598.258 1.137.063 1.619.417.45.625.995.625 1.635 0 .45-.054.848-.162 1.194-.108.347-.248.624-.419.833-.172.209-.385.385-.641.528-.256.143-.504.246-.744.31-.24.063-.51.111-.811.143.274.238.411.614.411 1.127v1.674c0 .095.033.175.099.238.066.063.17.082.313.056 1.224-.407 2.222-1.141 2.995-2.202.773-1.061 1.159-2.255 1.159-3.583 0-1.105-.272-2.125-.815-3.059z"/></g></g></svg>