<svg xmlns="http://www.w3.org/2000/svg" xmlns:svg="http://www.w3.org/2000/svg" xmlns:xlink="http://www.w3.org/1999/xlink" id="svg2" version="1.1" viewBox="0 0 64 64"><metadata id="metadata28"/><defs id="defs4"><linearGradient id="3" x1="-423.69" x2="-422.39" y1="447.89" y2="290.14" gradientTransform="translate(90.088904,0)" gradientUnits="userSpaceOnUse" xlink:href="#1"/><linearGradient id="2" x1="-701.19" x2="-704.05" y1="647.77" y2="354.29" gradientUnits="userSpaceOnUse"><stop id="stop8" stop-color="#93cfff"/><stop id="stop10" offset="1" stop-color="#cde8fe"/></linearGradient><linearGradient id="0" x1="59.12" x2="59.15" y1="-13.295" y2="-37.783" gradientTransform="matrix(4.17478 0 0 4.16765-1066.12 447.73)" gradientUnits="userSpaceOnUse" xlink:href="#1"/><linearGradient id="1"><stop id="stop14" stop-color="#289bf7"/><stop id="stop16" offset="1" stop-color="#71b9f1"/></linearGradient><linearGradient id="linearGradient4168" x1="44.894" x2="44.543" y1="46.856" y2="25.432" gradientTransform="matrix(1.0909091,0,0,1.0909091,-15.504755,-2.753132)" gradientUnits="userSpaceOnUse" xlink:href="#1"/></defs><g id="g18" transform="matrix(.12614 0 0 .12614 85.51-10.1)"><path id="path20" fill="url(#0)" d="m-880.52 294.78c-4.626 0-8.349 3.718-8.349 8.335v161.41l461.02 1v-121.2c0-4.618-3.724-8.335-8.35-8.335h-265.48c-8.51.751-9.607-.377-13.812-5.981-5.964-7.968-14.969-21.443-20.84-29.21-4.712-6.805-5.477-6.02-13.292-6.02z" color="#000" transform="translate(234.13-140.27)"/><rect id="rect22" width="463.85" height="295.13" x="-890.28" y="356.85" fill="url(#2)" stroke="url(#2)" stroke-width="2.378" rx="9.63" transform="translate(234.13-140.27)"/></g><path style="fill:url(#linearGradient4168);fill-opacity:1;stroke:none;stroke-width:.60000002;stroke-linecap:round;stroke-linejoin:round;stroke-miterlimit:4;stroke-dasharray:none;stroke-opacity:.8048782" id="path4276-3" d="m 40.064532,35.322502 c -1.540501,-4.299 -4.807501,-8.16 -8.265,-11.089502 -3.457501,2.929502 -6.723,6.790502 -8.265,11.089502 -0.952501,2.658 -1.047,5.544 0.295499,8.095498 1.543501,2.932502 4.656,4.815 7.969501,4.815 3.313499,0 6.426,-1.882498 7.969499,-4.815 1.342501,-2.551498 1.248,-5.436 0.295501,-8.095498 z"/></svg>