<svg xmlns="http://www.w3.org/2000/svg" xmlns:svg="http://www.w3.org/2000/svg" xmlns:xlink="http://www.w3.org/1999/xlink" id="svg2" version="1.1" viewBox="0 0 48 48"><metadata id="metadata38"/><defs id="defs4"><linearGradient id="5" x1="216.16" x2="215.55" y1="323.41" y2="299.27" gradientUnits="userSpaceOnUse" xlink:href="#0-9"/><linearGradient id="3" x1="224.4" x2="226.22" y1="304.6" y2="300.33" gradientUnits="userSpaceOnUse" xlink:href="#0-9"/><linearGradient id="1" x1="216.16" x2="215.55" y1="323.41" y2="299.27" gradientUnits="userSpaceOnUse"><stop id="stop14" stop-color="#2e3e46"/><stop id="stop16" offset="1" stop-color="#435a64"/></linearGradient><linearGradient id="2" x1="207.82" x2="205.57" y1="305.18" y2="300.14" gradientUnits="userSpaceOnUse" xlink:href="#0-9"/><linearGradient id="linearGradient4256" x1="346.57" x2="361.57" y1="513.8" y2="528.8" gradientUnits="userSpaceOnUse"><stop id="stop4258" stop-color="#2e5d89"/><stop id="stop4260" offset="1" stop-color="#1b92f4"/></linearGradient><linearGradient id="0-9" x2="0" y1="7.758" y2="-19.542" gradientUnits="userSpaceOnUse"><stop id="stop4276" stop-color="#dce2ff"/><stop id="stop4278" offset="1" stop-color="#f8feff"/></linearGradient><linearGradient id="linearGradient4290" x1="463.409" x2="462.02" y1="547.435" y2="506.183" gradientUnits="userSpaceOnUse" xlink:href="#linearGradient4256"/></defs><g id="g24" transform="matrix(0.93632,0,0,0.93678,-410.42018,-466.10862)"><g style="fill:url(#1)" id="g26" transform="matrix(1.91725,0,0,1.91631,49.746,-73.71)"><path style="fill:url(#5);fill-opacity:1" id="path28" d="m 216,302 c -6.06,0 -11,4.935 -11,11 0,6.06 4.935,11 11,11 6.06,0 11,-4.935 11,-11 0,-6.06 -4.935,-11 -11,-11"/><path style="fill:url(#2);fill-opacity:1" id="path30" d="m 204.28,306.49 -1.244,-1.462 c -0.537,-0.642 -0.452,-1.606 0.191,-2.145 l 4.196,-3.585 c 0.642,-0.536 1.675,-0.41 2.214,0.233 l 1.462,1.719 c -2.745,1.08 -5.05,3.039 -6.571,5.53 z"/><path style="fill:url(#3);fill-opacity:1" id="path32" d="m 229.07,304.99 -1.562,1.867 c -1.502,-2.503 -3.797,-4.477 -6.535,-5.574 l 1.45,-1.732 c 0.532,-0.646 1.564,-0.782 2.21,-0.25 l 4.229,3.546 c 0.646,0.533 0.739,1.497 0.208,2.143"/></g><path style="opacity:.98999999;fill:url(#linearGradient4290);fill-opacity:1" id="path34" d="m 463.9,513.34 c 0.868,0 1.579,0.711 1.579,1.578 l 0,10.809 6.129,4.792 c 0.71,0.526 0.817,1.525 0.291,2.209 -0.289,0.395 -0.765,0.602 -1.238,0.602 -0.342,0 -0.682,-0.13 -0.971,-0.341 l -6.759,-5.259 c -0.368,-0.289 -0.608,-0.74 -0.608,-1.239 l 0,-11.573 c 0,-0.868 0.71,-1.578 1.578,-1.578"/></g></svg>