<svg xmlns="http://www.w3.org/2000/svg" xmlns:xlink="http://www.w3.org/1999/xlink" viewBox="0 0 48 48"><defs><linearGradient id="9" x2="0" y1="19.402" y2="14.94" gradientUnits="userSpaceOnUse" xlink:href="#8"/><linearGradient id="6" x2="0" y1="5.273" y2="8.991" gradientUnits="userSpaceOnUse"><stop stop-color="#ff4c39"/><stop offset="1" stop-color="#cf3d2e"/></linearGradient><linearGradient id="8"><stop stop-color="#258e52"/><stop offset="1" stop-color="#00c253"/></linearGradient><linearGradient id="7" x2="0" y1="14.197" y2="10.478" gradientUnits="userSpaceOnUse" xlink:href="#8"/><linearGradient id="5" x2="0" y1="13.453" y2="10.479" gradientUnits="userSpaceOnUse" xlink:href="#2"/><linearGradient id="0" x2="0" y1="25.299" y2="-1.701" gradientUnits="userSpaceOnUse"><stop stop-color="#dbdada"/><stop offset="1" stop-color="#fff"/></linearGradient><linearGradient id="4" x1="43.42" x2="42.674" y1="13.453" y2="11.222" gradientUnits="userSpaceOnUse"><stop stop-color="#2574a8"/><stop offset="1" stop-color="#329ee4"/></linearGradient><linearGradient id="1" x2="0" y1="18.658" y2="14.967" gradientUnits="userSpaceOnUse" xlink:href="#2"/><linearGradient id="3" x2="0" y1="19.402" y2="14.967" gradientUnits="userSpaceOnUse" xlink:href="#2"/><linearGradient id="2"><stop stop-color="#d6c240"/><stop offset="1" stop-color="#fff360"/></linearGradient></defs><g transform="matrix(1.71427 0 0 1.71427-49.21 3.512)"><circle cx="42.708" cy="11.958" r="14" fill="url(#0)"/><g fill="url(#6)"><ellipse cx="37.84" cy="7.207" rx="1.859" ry="1.859"/><ellipse cx="42.823" cy="7.207" rx="1.859" ry="1.859"/><ellipse cx="47.656" cy="7.207" rx="1.859" ry="1.859"/></g><ellipse cx="37.84" cy="12.338" fill="url(#7)" rx="1.859" ry="1.859"/><ellipse cx="37.84" cy="17.246" fill="url(#9)" rx="1.859" ry="1.859"/><ellipse cx="47.656" cy="12.189" fill="url(#5)" rx="1.859" ry="1.859"/><ellipse cx="47.656" cy="17.1" fill="url(#1)" rx="1.859" ry="1.859"/><ellipse cx="42.822" cy="17.246" fill="url(#3)" rx="1.859" ry="1.859"/><ellipse cx="42.822" cy="12.263" fill="url(#4)" rx="1.859" ry="1.859"/></g></svg>