<svg xmlns="http://www.w3.org/2000/svg" xmlns:xlink="http://www.w3.org/1999/xlink" viewBox="0 0 48 48"><defs><linearGradient id="6" x1="65.02" x2="64.51" y1="-3.263" y2="1.927" gradientUnits="userSpaceOnUse" xlink:href="#3"/><linearGradient id="5" x1="77.12" x2="63.54" y1="7.597" y2="-14.96" gradientUnits="userSpaceOnUse" xlink:href="#3"/><linearGradient id="7" x1="49.5" x2="48.754" y1="-3.527" y2="1.729" gradientUnits="userSpaceOnUse" xlink:href="#3"/><linearGradient id="4" x1="40.32" x2="50.806" y1="8.923" y2="-14.96" gradientUnits="userSpaceOnUse" xlink:href="#3"/><linearGradient id="3"><stop stop-color="#141414"/><stop offset="1" stop-color="#2d2d2f"/></linearGradient><linearGradient id="0" x1="7633.22" x2="7555.92" y1="11644.14" y2="10541.96" gradientTransform="matrix(.01207 0 0 .01086-33.776-99.52)" gradientUnits="userSpaceOnUse"><stop stop-color="#fd3865"/><stop offset="1" stop-color="#ff6a45"/></linearGradient><linearGradient id="2" x1="57.46" x2="57.937" y1="2.997" y2="-20.18" gradientUnits="userSpaceOnUse" xlink:href="#3"/><linearGradient id="1" x2="0" y1="25.01" y2="-19.542" gradientUnits="userSpaceOnUse"><stop stop-color="#d3d3d3"/><stop offset="1" stop-color="#fcf9f9"/></linearGradient></defs><g fill-rule="evenodd" transform="matrix(.99999 0 0 .99999-33.371 20.882)"><circle cx="57.46" cy="2.997" r="23.1" fill="url(#1)"/><circle cx="57.37" cy="3.081" r="22.893" fill="none" fill-opacity="0" stroke="url(#2)" stroke-linejoin="round" stroke-width="2.126"/><path fill="url(#4)" d="m34.2 1.485c.966-11.39 10.546-17.47 11.833-17.901.665-.47.99.154.993.818.087 5.312 1.646 2.521 3.319 1.282 1.304-.965 3.078-.862 2.756 1.607-.623 3.138-1.893 9.473.983 8.605.668-.064.329.555.329.555-1.214 4.592-.618 9.554-.36 14.801-.037.2-.842.947-1.958-2.876-.758-2.596-6.979-7.113-9.767.441-1.525 4.147-5.281-1.33-4.82-4.659.606-4.378-1.378-3.986-2.935-2.235-.624.897-.415.279-.372-.437"/><path fill="#2a2a2c" d="m57.51-7.591c.811-1.624 2.609-11.358 6.99-10.858-3.924-.966-10-.988-14.321.18 4.795-.134 6.298 9.04 7.33 10.678"/><path fill="url(#5)" d="m80.76 1.485c-.966-11.39-10.546-17.47-11.833-17.901-.665-.47-.99.154-.993.818-.087 5.312-1.646 2.521-3.319 1.282-1.304-.965-3.078-.862-2.756 1.607.623 3.136 1.892 9.465-.977 8.607-.626-.03-.353.485-.353.485 1.239 4.611.637 9.597.379 14.87.037.2.842.947 1.958-2.876.758-2.596 6.979-7.113 9.767.441 1.525 4.147 5.281-1.33 4.82-4.659-.606-4.378 1.378-3.986 2.935-2.235.624.897.415.279.372-.437"/><path fill="url(#7)" d="m44.3-2.839c-3.516 7.094 9.179 6.437 9.397.163 0 0-.109-.812-.96-.812h-7.487c-.642-.029-.951.648-.951.648"/><path fill="#fffdfd" fill-opacity=".94" d="m46.09-2.01c-2.155 4.575 6.06 4.136 6.264.055.006-.807-.63-.581-.63-.581h-4.895c-.565-.111-.738.526-.738.526"/><path fill="url(#6)" d="m70.62-2.839c3.516 7.094-9.179 6.437-9.397.163 0 0 .109-.812.96-.812h7.487c.642-.029.951.648.951.648"/><path fill="#fffdfd" fill-opacity=".94" d="m68.825-2.01c2.155 4.575-6.06 4.136-6.264.055-.006-.807.63-.581.63-.581h4.895c.565-.111.738.526.738.526"/><path fill="#141414" stroke-linejoin="round" stroke-width="28.22" d="m50.702 16.243c0 0-.78-2.978 1.74-2.317 0 0 4.474 2.409 10.07-.03 2.516-.675 1.754 2.307 1.754 2.307-1.426 4.423-6.771 4.08-6.771 4.08 0 0-5.342.375-6.794-4.04" opacity=".997"/><path fill="url(#0)" d="m52.837 16.198c.803-.855 1.992-.994 3.072-.497 1.301.599 2.433.477 3.582.03 1.762-.687 2.66-.078 3.01.286.268.254.051.534.051.534l-3.818 9.372c-.407 1.139-1.416 1.866-2.349.317l-3.595-9.588c-.1-.211.049-.453.049-.453"/></g></svg>