<svg xmlns="http://www.w3.org/2000/svg" xmlns:svg="http://www.w3.org/2000/svg" xmlns:xlink="http://www.w3.org/1999/xlink" id="svg5453" width="48" height="48" version="1.1"><defs id="defs5455"><linearGradient id="linearGradient4309" x1="19.93" x2="20.875" y1="43.896" y2="3.975" gradientTransform="translate(386.57143,499.798)" gradientUnits="userSpaceOnUse" xlink:href="#linearGradient4422"/><linearGradient id="linearGradient4903"><stop id="stop4905" offset="0" style="stop-color:#e8ebec;stop-opacity:1"/><stop id="stop4907" offset="1" style="stop-color:#fdfeff;stop-opacity:1"/></linearGradient><linearGradient id="linearGradient4303"><stop style="stop-color:#197cf1;stop-opacity:1" id="stop4305" offset="0"/><stop style="stop-color:#21c9fb;stop-opacity:1" id="stop4307" offset="1"/></linearGradient><linearGradient id="linearGradient4498" x1="411.548" x2="411.535" y1="523.852" y2="531.967" gradientTransform="translate(-825.14288,-1055.5959)" gradientUnits="userSpaceOnUse" xlink:href="#linearGradient4303"/><linearGradient id="linearGradient4506" x1="411.491" x2="411.703" y1="537.256" y2="517.876" gradientTransform="translate(2,0)" gradientUnits="userSpaceOnUse" xlink:href="#linearGradient4903"/><linearGradient id="linearGradient4422"><stop id="stop4424" offset="0" style="stop-color:#f15f19;stop-opacity:1"/><stop id="stop4426" offset="1" style="stop-color:#fbb521;stop-opacity:1"/></linearGradient></defs><metadata id="metadata5458"/><g id="layer1" transform="translate(-384.57143,-499.798)"><g id="g4322" transform="matrix(1.1146822,0,0,1.1146822,-46.226152,-60.063951)"><path id="path4184" d="m 407.44643,503.77261 a 3.0003,3.0003 0 0 0 -1.70508,5.40234 l 3.41016,2.62305 -16.58008,0 a 3.0003,3.0003 0 1 0 0,6 l 7.51953,0 -12.2832,8.92383 a 3.0003,3.0003 0 1 0 3.52539,4.85351 l 6.27734,-4.56054 a 15.999973,15.999973 0 0 0 -0.0391,0.7832 15.999973,15.999973 0 0 0 16,16 15.999973,15.999973 0 0 0 16,-16 15.999973,15.999973 0 0 0 -6.95508,-13.19727 3.0003,3.0003 0 0 0 -0.21679,-0.18164 l -13,-10 a 3.0003,3.0003 0 0 0 -1.95313,-0.64648 z" style="opacity:1;fill:url(#linearGradient4309);fill-opacity:1;stroke:none;stroke-width:2;stroke-linecap:round;stroke-linejoin:round;stroke-miterlimit:4;stroke-dasharray:none;stroke-opacity:1"/><circle id="path4184-1" cx="413.571" cy="527.798" r="10" style="opacity:1;fill:url(#linearGradient4506);fill-opacity:1;stroke:none;stroke-width:2;stroke-linecap:round;stroke-linejoin:round;stroke-miterlimit:4;stroke-dasharray:none;stroke-opacity:1"/><circle id="path4184-1-9" cx="-413.571" cy="-527.798" r="4" transform="scale(-1,-1)" style="opacity:1;fill:url(#linearGradient4498);fill-opacity:1;stroke:none;stroke-width:2;stroke-linecap:round;stroke-linejoin:round;stroke-miterlimit:4;stroke-dasharray:none;stroke-opacity:1"/></g></g></svg>