<svg xmlns="http://www.w3.org/2000/svg" xmlns:svg="http://www.w3.org/2000/svg" id="svg2" version="1.1" viewBox="0 0 48 48"><metadata id="metadata10"/><path id="path4-9" d="m 38.896025,22.140426 c -0.210001,0.188152 -0.51954,0.197863 -0.744108,0.02792 l -7.40831,-5.637259 -3.509327,20.996482 c -0.01335,0.08012 -0.04127,0.151735 -0.08254,0.218499 -0.70405,3.010422 -4.544766,5.253672 -9.061614,5.253672 -5.063097,0 -9.1830059,-2.804063 -9.1830059,-6.250268 0,-3.447419 4.1186949,-6.251482 9.1830019,-6.251482 2.079377,0 4.055573,0.464916 5.66275,1.318274 L 28.39475,5.4859932 c 0.04127,-0.240348 0.229423,-0.432141 0.473413,-0.477055 0.235492,-0.04127 0.48191,0.06676 0.60694,0.279193 L 39.01013,21.403601 c 0.144452,0.245204 0.0959,0.549888 -0.115318,0.738039" style="fill:#fff;fill-opacity:1;enable-background:new"/></svg>