<svg xmlns="http://www.w3.org/2000/svg" viewBox="0 0 48 48"><defs><linearGradient id="0" x1="49.38" x2="48.05" y1="24.06" y2="3.69" gradientUnits="userSpaceOnUse"><stop stop-color="#d5dbff"/><stop offset="1" stop-color="#f9ffff"/></linearGradient><linearGradient id="1" x1="-63.4" x2="-63.5" y1="10.997" y2="-19.295" gradientUnits="userSpaceOnUse"><stop stop-color="#ff5b4f"/><stop offset="1" stop-color="#ff7369"/></linearGradient><linearGradient id="2" x1="-54.7" x2="-55.3" y1="3.413" y2="-22.3" gradientUnits="userSpaceOnUse"><stop stop-color="#566069"/><stop offset="1" stop-color="#6c7884"/></linearGradient></defs><g transform="matrix(.99999 0 0 .99999-38.37 20.882)"><rect width="40.627" height="31.2" x="-82.3" y="-19.869" fill="url(#2)" rx="1.217" transform="matrix(-.99998-.00628-.00628.99998 0 0)"/><rect width="40.627" height="31.2" x="-84.39" y="-19.863" fill="url(#1)" rx="1.217" transform="matrix(-.98432-.17638-.17638.98432 0 0)"/><g fill="#fff" fill-opacity=".851" fill-rule="evenodd"><path d="m66.735-3.601l-2.498 16.573 7.524 5.28-5.03-21.853" opacity=".85"/><path d="m65.795-3.422l-13.725 16.391 12.201-6.271" opacity=".85"/><path d="m59.07 10.265l-5.644 3.976 17.933 4.648-12.288-8.624m-5.176 4.02l.105-.05-.5-.07z" opacity=".85"/></g><path fill="url(#0)" d="M48.698005 3.590935A10.466615 10.466615 0 0 0 38.376 14.201289 10.466615 10.466615 0 0 0 48.986354 24.52104 10.466615 10.466615 0 0 0 59.30836 13.91294 10.466615 10.466615 0 0 0 48.698005 3.590935m-3.082 6.091l7.709 4.244-7.529 4.555-.18-8.799z"/></g></svg>