<svg xmlns="http://www.w3.org/2000/svg" xmlns:xlink="http://www.w3.org/1999/xlink" viewBox="0 0 48 48"><defs><linearGradient id="8" x1="543.95" x2="543.74" y1="484.81" y2="427.54" gradientTransform="matrix(.53361 0 0 .53476-221.94-216.11)" gradientUnits="userSpaceOnUse" xlink:href="#1"/><linearGradient id="5" x2="0" y1="28.442" y2="25.17" gradientUnits="userSpaceOnUse" xlink:href="#3"/><linearGradient id="7" x1="69.39" x2="69.26" y1="24.14" y2="21.988" gradientUnits="userSpaceOnUse" xlink:href="#3"/><linearGradient id="6" x1="391.57" x2="390.88" y1="531.8" y2="507.67" gradientTransform="matrix(.68488 0 0 .84437-199.89-405.47)" gradientUnits="userSpaceOnUse"><stop stop-color="#d3d3d3"/><stop offset="1" stop-color="#fcf9f9"/></linearGradient><linearGradient id="4" x1="74.3" x2="88.18" y1="26.87" y2="40.747" gradientUnits="userSpaceOnUse" xlink:href="#3"/><linearGradient id="3"><stop stop-color="#222c35"/><stop offset="1" stop-color="#545e67"/></linearGradient><linearGradient id="0" x1="80.34" x2="80.06" y1="43.46" y2="25.427" gradientUnits="userSpaceOnUse" xlink:href="#1"/><linearGradient id="2" x1="80.978" x2="80.37" y1="44.46" y2="22.484" gradientUnits="userSpaceOnUse" xlink:href="#3"/><linearGradient id="1"><stop stop-color="#197ff1"/><stop offset="1" stop-color="#21c6fb"/></linearGradient></defs><g transform="matrix(.99999 0 0 .99999-48.37.882)"><rect width="40.986" height="31.543" x="47.13" y="11.946" fill="url(#8)" rx="1.23" transform="matrix(.9925-.12226.12173.99256 0 0)"/><path fill-opacity=".638" fill-rule="evenodd" d="m51.623 33.84l8.01-3.442 2.866 1.365 5.88-2.682 6.301 1.198 4.476.376 3.207-1.463 3.999-1.442 5.04-6.582 1.414 11.249-38.893 4.78c-1.803.426-1.995-.959-1.995-.959z"/><circle cx="56.645" cy="20.811" r="4.5" fill="#093057" opacity=".811" transform="matrix(.99253-.12199.12199.99253 0 0)"/><rect width="3.793" height="1.897" x="66.865" y="22.248" fill="url(#7)" rx=".632"/><rect width="32.874" height="20.265" x="63.5" y="23.302" fill="url(#6)" rx=".948"/><path fill="url(#2)" d="M69.42076 33.506768A11.518638 11.518638 0 0 1 80.939397 21.988133 11.518638 11.518638 0 0 1 92.45803 33.506768 11.518638 11.518638 0 0 1 80.939397 45.02541 11.518638 11.518638 0 0 1 69.42076 33.506768"/><circle cx="80.939" cy="33.507" r="9.05" fill="url(#4)"/><circle cx="80.939" cy="33.507" r="8.228" fill="url(#0)"/><circle cx="67.18" cy="26.804" r="1.638" fill="url(#5)" fill-rule="evenodd"/></g></svg>