<svg xmlns="http://www.w3.org/2000/svg" viewBox="0 0 48 48"><defs><linearGradient id="0" x1="248.2" x2="248.04" y1="-6.236" y2="-40.76" gradientUnits="userSpaceOnUse"><stop stop-color="#a0d5ff"/><stop offset="1" stop-color="#edf7f7"/></linearGradient><linearGradient id="1" x1="409.56" x2="409.81" y1="544.81" y2="504.66" gradientTransform="matrix(1.2171 0 0 1.15944-88.7-83.994)" gradientUnits="userSpaceOnUse"><stop stop-color="#197cf1"/><stop offset="1" stop-color="#20bcfa"/></linearGradient><linearGradient id="2" x1="408.15" x2="408.16" y1="518.7" y2="512.63" gradientUnits="userSpaceOnUse"><stop stop-color="#a0d5ff"/><stop offset="1" stop-color="#fff"/></linearGradient></defs><g transform="matrix(.89631 0 0 .89631-342.2-442.24)"><path fill="url(#0)" d="m204.25-29.481c-1.108 0-2 .892-2 2v81.61l104.06.24v-70.04c0-1.108-.892-2-2-2h-48.601c-2.039.18-2.301-.09-3.308-1.435-1.429-1.912-3.586-7.06-4.992-8.929-1.129-1.633-1.312-1.443-3.184-1.443z" color="#000" transform="matrix(.48074 0 0 .48395 285.98 510.46)"/><rect width="53.55" height="39.42" x="381.8" y="504.77" fill="url(#1)" stroke-width="1.162" rx="1.855"/><rect width="16.2" height="3" x="400.47" y="514.43" fill="url(#2)" fill-rule="evenodd" rx="1.319"/></g></svg>