<svg xmlns="http://www.w3.org/2000/svg" xmlns:xlink="http://www.w3.org/1999/xlink" viewBox="0 0 48 48"><defs><linearGradient id="5"><stop stop-color="#dfe9f0"/><stop offset="1" stop-color="#ecf0f3"/></linearGradient><linearGradient id="4" x1="455.96" x2="459.03" y1="150.23" y2="91.67" gradientTransform="matrix(.05312 0 0 .07756 21.402-13.677)" gradientUnits="userSpaceOnUse" xlink:href="#5"/><linearGradient id="6" x1="29.549" x2="35.716" gradientUnits="userSpaceOnUse" xlink:href="#5"/><linearGradient id="3" x1=".967" x2="1.19" y1="204.55" y2="148.81" gradientTransform="matrix(.2433-.00018.00018.23193 33.463-45.516)" gradientUnits="userSpaceOnUse"><stop stop-color="#232323"/><stop offset="1" stop-color="#4f4f4f"/></linearGradient><linearGradient id="1" x2="0" y1="16.14" y2="2.119" gradientUnits="userSpaceOnUse"><stop stop-color="#00b167"/><stop offset="1" stop-color="#44ffbc"/></linearGradient><linearGradient id="0" x1="21.978" x2="22.373" y1="263.05" y2="150.16" gradientTransform="matrix(.2433-.00018.00018.23193 33.4-45.578)" gradientUnits="userSpaceOnUse"><stop stop-color="#4f4f4f"/><stop offset="1" stop-color="gray"/></linearGradient><linearGradient id="2" x1="29.67" x2="35.462" gradientUnits="userSpaceOnUse"><stop stop-color="#cdd7dc"/><stop offset="1" stop-color="#ecf0f3"/></linearGradient></defs><g transform="matrix(1.71427 0 0 1.71427-44.21 18.512)"><g fill-rule="evenodd"><path fill="url(#3)" d="m27.702-10.737h11.62v13.442h-13.468v-11.708c0-1.861 1.751-1.733 1.849-1.733"/><g fill="url(#0)"><path d="m27.64 16.07h11.62v-13.442h-13.468v11.708c0 1.861 1.751 1.733 1.849 1.733"/><path d="m50.841-10.737h-11.62v13.442h13.468v-11.708c0-1.861-1.751-1.733-1.849-1.733"/><path d="m50.813 16.07h-11.62v-13.442h13.468v11.708c0 1.861-1.751 1.733-1.849 1.733"/></g></g><circle cx="45.942" cy="9.306" r="7.85" fill="url(#1)"/><path fill="url(#6)" d="m33.2-7.103v2.521h2.511v1.135h-2.511v2.521h-1.145v-2.521h-2.511v-1.135h2.511v-2.521h1.145"/><path fill="url(#4)" d="m42.839-4.698h6.02v1.241h-6.02v-1.241"/><path fill="url(#2)" d="m35.462 7.19l-2.088 2.088 2.088 2.078-.808.808-2.088-2.078-2.088 2.078-.808-.808 2.088-2.078-2.088-2.088.808-.808 2.088 2.088 2.088-2.088.808.808"/><path fill="#e5ecf1" d="m42.856 7.766h6.167v1.13h-6.167v-1.13m0 2.189h6.167v1.14h-6.167v-1.14"/></g></svg>