<svg xmlns="http://www.w3.org/2000/svg" xmlns:svg="http://www.w3.org/2000/svg" id="svg2" version="1.1" viewBox="0 0 48 48"><metadata id="metadata28"/><defs id="defs4"><clipPath id="1"><path id="path7" fill="#1890d0" d="m-24 13c0 1.105-.672 2-1.5 2-.828 0-1.5-.895-1.5-2 0-1.105.672-2 1.5-2 .828 0 1.5.895 1.5 2" transform="matrix(15.33333 0 0 11.5 415-125.5)"/></clipPath><linearGradient id="0" x1="-123.97" x2="-125.19" y1="73.5" y2="-33.29" gradientTransform="matrix(.49433 0 0 .4778 86.64 13.1)" gradientUnits="userSpaceOnUse"><stop id="stop10" stop-color="#00a661"/><stop id="stop12" offset="1" stop-color="#37ce97"/></linearGradient><linearGradient id="0-9" x1="62.6" x2="62.15" y1="11.846" y2="-35.476" gradientUnits="userSpaceOnUse"><stop id="stop7" stop-color="#d3d3d3"/><stop id="stop9" offset="1" stop-color="#fcf9f9"/></linearGradient></defs><g id="g4155" transform="matrix(0.99999,0,0,0.99999,-38.469377,35.814881)"><circle style="fill:url(#0-9)" id="circle13" cx="62.47" cy="-11.815" r="24"/><path style="fill-opacity:.64899998" id="path23" d="m -21.22,5.777 -8.193,2.76 -1.695,8.506 6.496,5.748 8.193,-2.76 1.695,-8.506 -6.496,-5.748 m 15.365,3.15 -8.193,2.76 -1.697,8.506 6.498,5.748 8.191,-2.76 1.697,-8.508 -6.496,-5.746 m -10.324,11.836 -8.193,2.76 -1.695,8.508 6.496,5.746 8.193,-2.76 1.695,-8.506 -6.496,-5.748 z" transform="matrix(0.88193,0,0,0.88193,76.1,-30.12)"/></g></svg>