<svg xmlns="http://www.w3.org/2000/svg" viewBox="0 0 48 48"><defs><linearGradient id="0" x2="0" y1="542.8" y2="507.8" gradientTransform="matrix(1.09091 0 0 1.06528-383.34-560.93)" gradientUnits="userSpaceOnUse"><stop stop-color="#197ff1"/><stop offset="1" stop-color="#21c6fb"/></linearGradient></defs><g transform="matrix(.22655 0 0 .22655-51.801 16.962)"><rect width="48" height="36.22" x="38.38" y="-19.985" fill="url(#0)" stroke-width="1.714" rx="1.704" transform="matrix(4.414 0 0 4.414 59.28 39.36)"/><path fill="#fff" fill-opacity=".85" d="m257.97-38.3c-2.332-5.96-8.423-9.574-14.774-8.778-48.12 6.03-96.24 6.03-144.35 0-6.362-.797-12.439 2.808-14.774 8.778-8.735 22.331-8.735 44.662 0 66.993 2.332 5.96 8.423 9.574 14.774 8.778 48.12-6.03 96.24-6.03 144.35 0 6.362.797 12.439-2.808 14.774-8.778 8.735-22.331 8.735-44.662 0-66.993" transform="matrix(.84974 0 0 .84974 189.28 35.16)"/></g></svg>