<svg xmlns="http://www.w3.org/2000/svg" xmlns:svg="http://www.w3.org/2000/svg" id="svg2" version="1.1" viewBox="0 0 48 48"><metadata id="metadata10"/><path id="path4" d="m 3.494537,10.583972 c -0.822793,0 -1.493787,0.669894 -1.493787,1.493786 l 0,23.844484 c 0,0.822792 0.669894,1.493786 1.493787,1.493786 l 30.117726,0 c 0.822792,0 1.493786,-0.669894 1.493786,-1.493786 l 0,-8.358824 8.510623,7.331433 c 0.426796,0.368497 1.03289,0.452096 1.543286,0.217798 0.511495,-0.235398 0.839292,-0.747993 0.839292,-1.312288 l 0,-19.600722 c 0,-0.564295 -0.326697,-1.07359 -0.839292,-1.308988 -0.511496,-0.234298 -1.11649,-0.152899 -1.543286,0.214498 l -8.510623,7.331433 0,-8.358824 c 0,-0.822792 -0.669894,-1.493786 -1.493786,-1.493786 l -30.117726,0 m 14.847221,6.646876 a 6.7691691,6.7691691 0 0 1 6.769169,6.769171 6.7691691,6.7691691 0 0 1 -6.769169,6.769169 6.7691691,6.7691691 0 0 1 -6.769169,-6.769169 6.7691691,6.7691691 0 0 1 6.769169,-6.769171" style="fill:#fff;fill-opacity:1;enable-background:new"/></svg>