<svg xmlns="http://www.w3.org/2000/svg" xmlns:svg="http://www.w3.org/2000/svg" id="svg2" version="1.1" viewBox="0 0 48 48"><metadata id="metadata10"/><path id="path4" d="m 3.4936762,10.583525 c -0.822453,0 -1.4942921,0.670147 -1.4942921,1.494292 l 0,23.844366 c 0,0.822453 0.6701468,1.494292 1.4942921,1.494292 l 30.1176848,0 c 0.822453,0 1.494292,-0.670147 1.494292,-1.494292 l 0,-8.35822 8.512219,7.331 c 0.426457,0.368919 1.033989,0.451842 1.543368,0.218306 0.512764,-0.235229 0.839376,-0.747993 0.839376,-1.311525 l 0,-19.600103 c 0,-0.563532 -0.326612,-1.072912 -0.839376,-1.30814 -0.511071,-0.235228 -1.116911,-0.153998 -1.543368,0.214921 l -8.512219,7.331 0,-8.35822 c 0,-0.822453 -0.670147,-1.494292 -1.494292,-1.494292 l -30.1176848,0 m 7.9453018,6.647315 4.511645,0 0,13.53832 -4.511645,0 0,-13.53832 m 9.026674,0 4.511646,0 0,13.53832 -4.511646,0 0,-13.53832" style="fill:#fff;fill-opacity:1;enable-background:new"/></svg>