<svg xmlns="http://www.w3.org/2000/svg" xmlns:xlink="http://www.w3.org/1999/xlink" viewBox="0 0 48 48"><defs><clipPath><path d="m108.81 58c-1.56 0-2.81 1.254-2.81 2.812v24.375c0 1.559 1.25 2.813 2.81 2.813h24.375c1.57 0 2.82-1.254 2.82-2.812v-24.375c0-1.559-1.25-2.813-2.81-2.813h-24.375zm7.188 4.5h10v8.75h5l-10 13.75-10-13.75h5v-8.75"/></clipPath><filter color-interpolation-filters="sRGB"><feGaussianBlur stdDeviation="1.2"/></filter><filter color-interpolation-filters="sRGB"><feGaussianBlur stdDeviation="1.71"/></filter><filter color-interpolation-filters="sRGB"><feGaussianBlur stdDeviation=".637"/></filter><linearGradient id="2" x1="410.53" x2="408.57" y1="547.29" y2="500.31" gradientUnits="userSpaceOnUse"><stop stop-color="#ff6835"/><stop offset="1" stop-color="#ff956f"/></linearGradient><linearGradient x2="0" y1="92.54" y2="7.02" gradientTransform="scale(1.0059.99417)" gradientUnits="userSpaceOnUse"><stop/><stop offset="1" stop-opacity=".588"/></linearGradient><linearGradient id="1"><stop stop-color="#fff"/><stop offset="1" stop-color="#fff" stop-opacity="0"/></linearGradient><linearGradient x2="0" y1="58" y2="79.09" gradientUnits="userSpaceOnUse" xlink:href="#1"/><linearGradient x1="0" x2="47" gradientUnits="userSpaceOnUse"><stop stop-color="#a9a3d4"/><stop offset=".47" stop-color="#87baff"/><stop offset="1" stop-color="#89ec85"/></linearGradient><linearGradient x2="0" y1="71.38" y2="62.54" gradientUnits="userSpaceOnUse" xlink:href="#1"/><linearGradient id="0" x2="0" y1="546.8" y2="500.8" gradientUnits="userSpaceOnUse"><stop stop-color="#1f2121"/><stop offset="1" stop-color="#404447"/></linearGradient><linearGradient x1="-88" x2="-58" gradientUnits="userSpaceOnUse"><stop stop-color="#499119"/><stop offset="1" stop-color="#8fd625"/></linearGradient><linearGradient x2="0" y1="72.38" y2="63.54" gradientUnits="userSpaceOnUse"><stop/><stop offset="1" stop-opacity="0"/></linearGradient></defs><g stroke-width="1.317"><g transform="matrix(1.05533 0 0 1.05533-517.89-533.88) matrix(.87763 0 0 .87763 154.52 68.52)"><rect width="50.894" height="50.894" x="383.12" y="498.35" fill="url(#2)" fill-rule="evenodd" rx="1.468"/></g><path fill="#fff" fill-opacity=".851" stroke="none" stroke-opacity=".8" d="m31.722 324.47c-54.47 15.561-98.31 77.46-98.31 137.59v953.28c-55.23-30.836-126.16-43.3-199.7-22.931-132.7 36.764-215.85 155.58-187.41 265.34 28.445 109.76 159.17 171.07 291.87 134.31 105.87-29.33 178.84-112.32 190.48-199.83l3.072-900.86 688.19-196.55v710.86c-55.23-30.836-126.16-43.3-199.7-22.93-132.7 36.764-215.85 155.58-187.41 265.34 28.445 109.76 159.17 171.07 291.87 134.31 105.87-29.33 178.84-112.32 190.48-199.83l3.072-1172.76c0-45.09-26.14-78.83-61.45-85.17l-725.06 199.83" transform="matrix(1.05533 0 0 1.05533-517.89-533.88) matrix(.01637 0 0 .0162 508.66 512.7)"/><g transform="matrix(1.05533 0 0 1.05533-517.89-533.88) matrix(.43478 0 0 .43478 304.13 312.37)"><rect width="46" height="46" x="385.57" y="500.8" fill="url(#0)" stroke-width="1.515" rx="23" transform="translate(102.19 2.931)"/></g><path fill="#fff" fill-opacity=".851" d="m400.08 520.08l-6.589 11.492c-1.385 2.43-1.492 5.519 0 8.12 2.242 3.911 7.23 5.263 11.141 3.02 3.911-2.242 5.263-7.23 3.02-11.141l-6.589-11.492c-.218-.38-.765-.38-.983 0" transform="matrix(1.05533 0 0 1.05533-517.89-533.88) matrix(.4855 0 0 .4855 331.55 283.43)"/></g></svg>