<svg xmlns="http://www.w3.org/2000/svg" viewBox="0 0 48 48"><defs><linearGradient id="0" x1="-1092.91" x2="-1060.26" y1="203.1" y2="104.85" gradientTransform="matrix(.3555 0 0 .3508 457.51-34.4)" gradientUnits="userSpaceOnUse"><stop stop-color="#016ed4"/><stop offset="1" stop-color="#00b1ff"/></linearGradient><linearGradient id="1" x1="-989.67" x2="-1003.64" y1="433.28" y2="317.35" gradientTransform="matrix(.35601 0 0 .35122 444.07-122.66)" gradientUnits="userSpaceOnUse"><stop stop-color="#e7f0f4"/><stop offset="1" stop-color="#f4faff"/></linearGradient><linearGradient id="2" x1="85.46" x2="88.85" y1="10.514" y2="-11.231" gradientUnits="userSpaceOnUse"><stop stop-color="#0173dd"/><stop offset="1" stop-color="#00b1ff"/></linearGradient></defs><g transform="matrix(.99999 0 0 .99999-63.701 25.832)"><rect width="31.911" height="40.21" x="66.26" y="5.081" fill="url(#0)" rx=".981" transform="matrix(.94912-.31493.30721.95164 0 0)"/><rect width="35.539" height="43.17" x="71.789" y="-11.566" fill="url(#1)" rx="1.054" transform="matrix(.9921-.12541.13781.99046 0 0)"/><path fill="url(#2)" d="m83.24-10.849c-1.881-2.143-5.463 1.01-2.985 3.237 2.392 2.106 4.812 4.414 7.309 6.781l-5.574 9.546c-1.601 2.562 2.596 4.793 3.971 2.091l4.966-8.98 7.317 7.089c2.17 2.24 5.539-.706 3.331-2.976l-8.08-7.602c1.65-2.947 3.411-5.84 5.099-8.517 1.615-2.461-2.201-4.917-3.633-2.379l-4.838 8.171-6.886-6.462"/></g></svg>