<svg xmlns="http://www.w3.org/2000/svg" xmlns:xlink="http://www.w3.org/1999/xlink" viewBox="0 0 64 64"><defs><linearGradient id="8" x2="0" y1="211.23" y2="157.23" gradientUnits="userSpaceOnUse"><stop stop-color="#2fae61"/><stop offset="1" stop-color="#4bdf88"/></linearGradient><linearGradient id="5"><stop stop-color="#0a80fd"/><stop offset="1" stop-color="#56c5fa"/></linearGradient><linearGradient id="7" x1="82.46" x2="82.74" y1="30.487" y2="24.587" gradientUnits="userSpaceOnUse"><stop stop-color="#060606"/><stop offset="1" stop-color="#343434"/></linearGradient><linearGradient id="6" x2="0" y1="45.946" y2="25.988" gradientUnits="userSpaceOnUse" xlink:href="#5"/><linearGradient id="4" x1="98.65" x2="98.44" y1="19.362" y2="16.254" gradientUnits="userSpaceOnUse" xlink:href="#5"/><linearGradient id="3" x1="-847.06" x2="-843.94" y1="191.09" y2="-181.89" gradientTransform="matrix(.07412 0 0 .06784 145.54 26.06)" gradientUnits="userSpaceOnUse" xlink:href="#1"/><linearGradient id="0" x1="81.26" x2="81.41" y1="14.551" y2="2.154" gradientUnits="userSpaceOnUse" xlink:href="#1"/><linearGradient id="2" x1="81.4" x2="81.51" y1="11.641" y2=".651" gradientUnits="userSpaceOnUse"><stop stop-color="#cdced2"/><stop offset="1" stop-color="#f1f1f1"/></linearGradient><linearGradient id="1"><stop stop-color="#1f1f1f"/><stop offset="1" stop-color="#444"/></linearGradient></defs><g><g transform="translate(-736.86-157.93) matrix(.9514 0 0 .9514 687.34 163.23)"><rect width="30.26" height="10.47" x="67.28" y="6.357" fill="url(#0)" rx=".654"/><rect width="24.21" height="13.09" x="70.27" y=".741" fill="url(#2)" rx=".685"/><rect width="48" height="26.502" x="58.37" y="12.9" fill="url(#3)" rx="1.559"/><path fill="url(#4)" d="m96.39585 16.4177a1.472334 1.472334 0 0 0 -1.472333 1.472334 1.472334 1.472334 0 0 0 1.472333 1.472334 1.472334 1.472334 0 0 0 1.472334 -1.472334 1.472334 1.472334 0 0 0 -1.472334 -1.472334m4.253411 0a1.472334 1.472334 0 0 0 -1.472336 1.472334 1.472334 1.472334 0 0 0 1.472336 1.472334 1.472334 1.472334 0 0 0 1.47233 -1.472334 1.472334 1.472334 0 0 0 -1.47233 -1.472334"/><rect width="23.721" height="18.65" x="70.51" y="27.46" fill="url(#6)" rx=".965"/><path fill="url(#7)" d="m71.17 26.15h22.412c1.178 0 2.127.949 2.127 2.127v.164c0 1.178 0 2.127 0 2.127h-26.666c0 0 0-.949 0-2.127v-.164c0-1.178.949-2.127 2.127-2.127"/></g><g transform="translate(-736.86-157.93) matrix(.47098 0 0 .47098 419.55 113.32)"><circle cx="768.86" cy="184.55" r="28" fill="url(#8)" transform="translate(0 5.385)"/><path fill="#fff" fill-opacity=".851" d="m773.85 193.97l-1.89-1.89c-.259-.259-.574-.389-.945-.389-.371 0-.686.13-.945.389l-9.116 9.13-4.085-4.099c-.259-.259-.574-.389-.945-.389-.371 0-.686.13-.945.389l-1.89 1.89c-.259.259-.389.574-.389.945 0 .37.13.686.389.945l5.03 5.03 1.89 1.89c.259.259.574.389.945.389.37 0 .685-.13.945-.389l1.89-1.89 10.06-10.06c.259-.259.389-.574.389-.945 0-.37-.13-.685-.389-.945" transform="matrix(1.4352 0 0 1.4352-326.87-95.3)"/></g></g></svg>