<svg xmlns="http://www.w3.org/2000/svg" xmlns:svg="http://www.w3.org/2000/svg" xmlns:xlink="http://www.w3.org/1999/xlink" id="svg2" version="1.1" viewBox="0 0 48 48"><metadata id="metadata24"/><defs id="defs4"><linearGradient id="linearGradient4200" x1="409.375" x2="408.545" y1="545.815" y2="500.032" gradientUnits="userSpaceOnUse" xlink:href="#0-3"/><linearGradient id="linearGradient4192" x1="24" x2="24" y1="48.2" y2=".207" gradientUnits="userSpaceOnUse" xlink:href="#0"/><linearGradient id="0" x2="0" y1="7.758" y2="-19.542" gradientUnits="userSpaceOnUse"><stop id="stop4276" stop-color="#dce2ff"/><stop id="stop4278" offset="1" stop-color="#f8feff"/></linearGradient><linearGradient id="0-3" x2="0" y1="653.96" y2="301.3" gradientTransform="matrix(0.13837718,0,0,0.13837718,2.3838765,-35.94299)" gradientUnits="userSpaceOnUse"><stop id="stop7" stop-color="#0a80fd"/><stop id="stop9" offset="1" stop-color="#56c5fa"/></linearGradient></defs><g id="g16" transform="matrix(1.04348,0,0,1.04399,-402.31392,-522.83361)"><rect id="rect18" width="44" height="44" x="386.57" y="501.8" rx="21.999" style="fill:url(#linearGradient4200);fill-opacity:1;stroke-width:1.14999998"/><path id="path20" d="M 23.961,0 C 20.707,0 17.613,0.645 14.643,1.92 8.743,4.452 4.422,8.746 1.887,14.658 0.617,17.62 0,20.718 0,23.972 c 0,3.256 0.616,6.383 1.887,9.346 2.535,5.912 6.857,10.229 12.756,12.762 2.971,1.275 6.06,1.92 9.318,1.92 3.254,0 6.369,-0.652 9.342,-1.92 C 39.252,43.541 43.551,39.22 46.082,33.318 47.356,30.346 48,27.228 48,23.972 48,20.717 47.357,17.63 46.082,14.658 43.551,8.755 39.252,4.458 33.303,1.92 30.33,0.651 27.216,0 23.961,0 m -0.494,9.799 c 1.128,0 2.053,0.924 2.053,2.053 l 0,14.06 7.969,6.232 c 0.923,0.684 1.061,1.984 0.377,2.873 -0.376,0.513 -0.994,0.783 -1.609,0.783 -0.444,0 -0.886,-0.17 -1.262,-0.443 l -8.787,-6.84 c -0.479,-0.376 -0.791,-0.961 -0.791,-1.611 l 0,-15.05 c 0,-1.129 0.922,-2.053 2.051,-2.053" transform="matrix(0.95834,0,0,0.958,385.55,500.8)" style="opacity:.98999999;fill:url(#linearGradient4192);fill-opacity:1"/></g></svg>