<svg xmlns="http://www.w3.org/2000/svg" xmlns:svg="http://www.w3.org/2000/svg" xmlns:xlink="http://www.w3.org/1999/xlink" id="svg2" version="1.1" viewBox="0 0 48 48"><metadata id="metadata42"/><defs id="defs4"><linearGradient id="1" x1="98.63" x2="96.02" y1="297.17" y2="-22.866" gradientUnits="userSpaceOnUse"><stop id="stop12" stop-color="#197cf1"/><stop id="stop14" offset="1" stop-color="#20bcfa"/></linearGradient><linearGradient id="linearGradient4203" x1="408.765" x2="408.57" y1="546.8" y2="500.995" gradientUnits="userSpaceOnUse" xlink:href="#0"/><linearGradient id="linearGradient4205" x1="98.63" x2="96.02" y1="297.17" y2="-22.866" gradientTransform="matrix(0.1117254,0,0,0.1117254,9.3859036,9.396104)" gradientUnits="userSpaceOnUse" xlink:href="#1"/><linearGradient id="0" x2="0" y1="7.758" y2="-19.542" gradientUnits="userSpaceOnUse"><stop id="stop4276" stop-color="#dce2ff"/><stop id="stop4278" offset="1" stop-color="#f8feff"/></linearGradient></defs><g id="g16" transform="matrix(1.04348,0,0,1.04348,-402.33463,-522.57481)"><path style="fill:url(#linearGradient4203);fill-opacity:1;stroke-width:1.14999998" id="rect18" d="m 408.57001,500.79999 c 12.742,0 23,10.258 23,23 0,12.742 -10.258,23 -23,23 -12.742,0 -23,-10.258 -23,-23 0,-12.742 10.258,-23 23,-23 z"/><g style="fill:url(#1)" id="g20" transform="matrix(0.10707,0,0,0.10707,394.57,509.8)"><path style="fill:url(#linearGradient4205);fill-opacity:1" id="path22" d="m 25.792969,9.3964844 c -1.587953,0 -2.88086,1.2909526 -2.88086,2.8789066 l 0,2.466797 c 0,1.587953 1.292907,2.878906 2.88086,2.878906 l 0.04102,0 c 0.462767,0 0.837891,-0.375124 0.837891,-0.837891 0,-0.462766 -0.375124,-0.837891 -0.837891,-0.837891 l -0.04102,0 c -0.663873,0 -1.203125,-0.539252 -1.203125,-1.203124 l 0,-2.466797 c 0,-0.663873 0.539252,-1.203125 1.203125,-1.203125 l 0.04102,0 c 0.663873,0 1.203125,0.539252 1.203125,1.203125 0,0.462766 0.377078,0.83789 0.839844,0.83789 0.462767,0 0.837891,-0.375124 0.837891,-0.83789 1.1e-5,-1.587954 -1.292795,-2.8789066 -2.88086,-2.8789066 l -0.04102,0 z m 7.767578,0 c -1.587953,0 -2.878906,1.2909526 -2.878906,2.8789066 l 0,2.466797 c 0,1.587953 1.290953,2.878906 2.878906,2.878906 l 0.04102,0 c 1.587954,0 2.88086,-1.290953 2.88086,-2.878906 l 0,-2.466797 c 0,-1.587954 -1.292906,-2.8789066 -2.88086,-2.8789066 l -0.04102,0 z m -13.371094,0.00391 c -0.24471,-0.0233 -0.492304,0.060496 -0.671875,0.2402344 l -2.123047,2.1230472 c -0.327243,0.327244 -0.327243,0.858415 0,1.185547 0.326843,0.326843 0.856366,0.326043 1.183594,0 l 0.002,0 0.691406,-0.691407 0,4.525391 c 0,0.462767 0.375124,0.839844 0.837891,0.839844 0.462767,0 0.837891,-0.377077 0.837891,-0.839844 l 0,-6.548828 c 0,-0.3389751 -0.204412,-0.6456776 -0.517578,-0.7753908 -0.07824,-0.0324 -0.158665,-0.050827 -0.240235,-0.058594 z m 13.371094,1.6718756 0.04102,0 c 0.663873,0 1.205079,0.541205 1.205079,1.205078 l 0,2.464844 c 0,0.663872 -0.541206,1.203124 -1.205079,1.203124 l -0.04102,0 c -0.663872,0 -1.203125,-0.539252 -1.203125,-1.203124 l 0,-2.464844 c 0,-0.663873 0.539253,-1.205078 1.203125,-1.205078 z m -13.410156,9.001953 c -1.587954,0 -2.878907,1.290953 -2.878907,2.878906 l 0,2.466797 c 0,1.587953 1.290953,2.878906 2.878907,2.878906 l 0.04297,0 c 1.587954,0 2.878907,-1.290953 2.878907,-2.878906 l 0,-2.466797 c 0,-1.587953 -1.290953,-2.878906 -2.878907,-2.878906 l -0.04297,0 z m 13.410156,0 c -1.587953,0 -2.878906,1.290953 -2.878906,2.878906 l 0,2.466797 c 0,1.587953 1.290953,2.878906 2.878906,2.878906 l 0.04102,0 c 1.587954,0 2.88086,-1.290953 2.88086,-2.878906 l 0,-2.466797 c 0,-1.587841 -1.292906,-2.878906 -2.88086,-2.878906 l -0.04102,0 z m -19.013672,0.0039 c -0.24471,-0.0233 -0.492304,0.0605 -0.671875,0.240234 l -2.123047,2.123047 c -0.327244,0.327244 -0.327244,0.858415 0,1.185547 0.327244,0.327244 0.858415,0.327244 1.185547,0 l 0.693359,-0.693359 0,4.527344 -0.002,0.002 c 0,0.462766 0.375124,0.83789 0.837891,0.83789 0.462766,0 0.837891,-0.375124 0.837891,-0.83789 l 0,-6.550782 c 0,-0.338974 -0.202459,-0.645677 -0.515626,-0.77539 -0.07823,-0.0324 -0.160617,-0.05083 -0.242187,-0.05859 z m 13.345703,0 c -0.24471,-0.0233 -0.492304,0.0605 -0.671875,0.240234 l -2.123047,2.123047 c -0.327243,0.327244 -0.327243,0.858415 0,1.185547 0.327244,0.327244 0.858415,0.327244 1.185547,0 l 0.693359,-0.693359 0,4.527344 c 0,0.462766 0.375125,0.83789 0.837891,0.83789 0.462767,0 0.837891,-0.375124 0.837891,-0.83789 l 0,-6.550782 c 0,-0.338528 -0.204412,-0.643724 -0.517578,-0.773437 -0.07824,-0.0324 -0.160618,-0.05083 -0.242188,-0.05859 z M 20.150391,21.75 l 0.04297,0 c 0.663873,0 1.203125,0.539253 1.203125,1.203125 l 0,2.466797 c 0,0.663872 -0.539252,1.203125 -1.203125,1.203125 l -0.04297,0 c -0.663873,0 -1.203125,-0.539253 -1.203125,-1.203125 l 0,-2.466797 c 0,-0.663872 0.539252,-1.203125 1.203125,-1.203125 z m 13.410156,0 0.04102,0 c 0.663873,0 1.205079,0.539253 1.205079,1.203125 l 0,2.466797 c 0,0.663872 -0.541206,1.203125 -1.205079,1.203125 l -0.04102,0 c -0.663872,0 -1.203125,-0.539253 -1.203125,-1.203125 l 0,-2.466797 c 0,-0.663872 0.539253,-1.203125 1.203125,-1.203125 z m -17.324219,8.636719 c -1.587953,0 -2.880859,1.290953 -2.880859,2.878906 l 0,2.466797 c 0,1.587953 1.292906,2.878906 2.880859,2.878906 l 0.04102,0 c 1.587953,0 2.878906,-1.290953 2.878906,-2.878906 l 0,-2.466797 c 1.1e-5,-1.587841 -1.290841,-2.878906 -2.878906,-2.878906 l -0.04102,0 z m 8.015625,0.002 c -0.24471,-0.0233 -0.492304,0.06245 -0.671875,0.242187 l -2.123047,2.123047 c -0.327243,0.327244 -0.327243,0.858415 0,1.185547 0.327244,0.327244 0.858415,0.327244 1.185547,0 l 0.69336,-0.693359 0,2.480468 c 0,0.462767 0.375124,0.837891 0.83789,0.837891 0.462767,0 0.837891,-0.375124 0.837891,-0.837891 l 0,-4.501953 c 0,-0.338974 -0.204412,-0.645677 -0.517578,-0.77539 -0.07824,-0.0324 -0.160618,-0.05278 -0.242188,-0.06055 z m -8.015625,1.673828 0.04102,0 c 0.663872,0 1.203125,0.539253 1.203125,1.203125 l 0,2.466797 c 0,0.663872 -0.539253,1.203125 -1.203125,1.203125 l -0.04102,0 c -0.663872,0 -1.203125,-0.539253 -1.203125,-1.203125 l 0,-2.466797 c 0,-0.663872 0.539253,-1.203125 1.203125,-1.203125 z" transform="matrix(8.9505159,0,0,8.9505159,-84.008679,-84.099978)"/></g></g></svg>